<svg width="306" height="112" viewBox="0 0 306 112" fill="none" xmlns="http://www.w3.org/2000/svg">
<path d="M149.164 111.661C149.164 111.466 149.658 111.21 150.263 111.096C150.869 110.977 152.409 110.504 153.685 110.041C154.961 109.579 157.21 109.048 158.673 108.865C163.252 108.284 165.532 106.584 165.532 103.746C165.532 103.097 165.815 101.779 166.16 100.824C166.505 99.869 166.819 98.5436 166.857 97.8904C166.93 96.6909 167.409 96.4885 169.125 96.9392C169.539 97.0462 169.723 96.7902 169.723 96.1218C169.723 95.4533 169.202 94.7504 167.991 93.8298C167.041 93.1041 166.125 92.596 165.961 92.6992C165.099 93.2301 160.363 86.5644 159.681 83.8561C159.539 83.3023 158.601 81.9042 157.589 80.7544C155.106 77.9315 153.574 75.7389 151.758 72.4195C150.785 70.6394 149.187 68.6263 147.329 66.8386C144.233 63.8629 143.574 62.717 143.574 60.3028C143.574 58.4846 144.11 57.9689 147.118 56.8955C149.283 56.1239 149.421 55.9825 151.597 52.3537C153.773 48.7248 155.93 46.3832 157.122 46.3603C157.44 46.3526 160.083 45.5428 162.995 44.5573C165.907 43.5718 168.669 42.7658 169.129 42.7658C169.589 42.7658 170.321 42.5786 170.75 42.3494C171.179 42.1202 173.01 41.5969 174.815 41.1882C176.62 40.7795 179.884 39.9887 182.068 39.431C184.336 38.8542 188.439 38.224 191.65 37.9604C198.148 37.4294 212.229 35.0344 213.891 34.1749C214.516 33.854 215.907 33.4224 216.987 33.2199C218.068 33.0175 220.592 32.2077 222.604 31.4246C226.389 29.9501 230.907 28.7621 235.386 28.0631C239.52 27.4175 253.309 26.1188 261.132 25.6375C265.083 25.393 271.102 24.8468 274.504 24.4266C277.906 24.0064 281.665 23.6588 282.856 23.6588C285.462 23.6588 304.148 21.745 305.841 21.3058C306.619 21.1033 304.531 20.9008 299.853 20.7328C295.902 20.5876 288.983 20.2782 284.485 20.0414C279.987 19.8045 275.044 19.6403 273.508 19.6747C267.753 19.8045 246.956 18.9336 241.573 18.3377C233.259 17.4209 223.803 16.7945 222.175 17.0542C221.386 17.1803 220.612 17.1536 220.451 16.9969C220.148 16.6952 206.754 16.8059 200.056 17.165C192.62 17.5661 183.305 17.5623 182.493 17.1574C182.056 16.9396 180.348 16.699 178.7 16.6264C171.961 16.3323 170.217 16.1566 169.8 15.7402C169.558 15.4995 168.685 15.3009 167.857 15.3009C166.865 15.3009 166.102 15.0297 165.604 14.4987C165.014 13.8646 164.141 13.6431 161.497 13.4445C158.263 13.2038 158.091 13.1389 156.742 11.6988C155.428 10.2931 154.827 11.2289 151.953 9.80794C149.98 8.83387 146.968 8.65052 145.149 8.6467C142.639 8.63906 141.421 7.98968 140.616 8.25707C139.819 8.52064 138.949 8.45188 137.593 8.01642C136.225 7.57713 135.256 7.50074 134.152 7.74903C133.306 7.94002 132.52 7.95148 132.405 7.77195C132.068 7.26008 129.723 6.15614 129.482 6.39679C129.149 6.72912 124.934 5.4189 122.133 4.11633C120.769 3.48223 119.39 2.96273 119.064 2.96273C118.739 2.96273 118.375 2.80611 118.256 2.61512C117.946 2.11472 114.256 1.64869 111.237 1.72891C109.651 1.77093 107.819 1.52646 106.524 1.09481C104.938 0.567667 104.337 0.510369 104.114 0.865617C103.892 1.22087 103.402 1.19031 102.088 0.739562C100.881 0.327015 98.9841 0.166581 95.8692 0.216239C93.4056 0.258258 91.2217 0.1895 91.0225 0.0672642C90.5895 -0.200127 84.2409 0.380494 81.7045 0.915276C80.7237 1.12155 79.8539 1.48826 79.7735 1.72891C79.693 1.96956 79.0187 2.16437 78.2754 2.16437C77.2371 2.16437 76.7198 2.4394 76.0379 3.35999C75.5015 4.08195 74.7927 4.55561 74.2371 4.55561C73.7122 4.55561 73.0571 4.96434 72.6969 5.51058C72.3521 6.0339 71.5398 6.68328 70.8923 6.95067C70.2448 7.21806 69.7161 7.65353 69.7161 7.92092C69.7161 8.95993 64.2908 10.8928 61.3177 10.9081C57.651 10.931 51.3522 8.54356 51.3522 7.13021C51.3522 6.80552 51.0036 6.54195 50.5783 6.54195C50.153 6.54195 49.6932 6.36241 49.5553 6.14468C49.4174 5.92695 48.9614 5.74741 48.5323 5.74741C48.1032 5.74741 47.7584 5.48384 47.7584 5.16297C47.7584 4.4181 46.4097 3.68468 45.6051 3.99409C45.2679 4.12397 44.448 3.8413 43.7814 3.37145C42.8044 2.67624 42.245 2.56164 40.8504 2.77173C39.5362 2.97037 39.0036 2.87869 38.6013 2.39739C37.9615 1.62577 37.019 1.60667 36.0458 2.34391C35.6435 2.6495 34.4328 3.10788 33.3523 3.36763C32.2719 3.62738 31.3907 4.00555 31.3907 4.20801C31.3907 4.41046 30.5822 4.92614 29.5937 5.34633C28.6052 5.76651 27.7968 6.28602 27.7968 6.49229C27.7968 7.40524 24.7777 8.72691 22.6091 8.76511C20.4865 8.79949 17.6091 9.63222 17.0804 10.3618C16.9386 10.5566 15.8352 11.2137 14.6245 11.821C13.4176 12.4284 11.8582 13.3222 11.1647 13.8112C10.4674 14.3001 8.0881 15.8433 5.87738 17.2414C2.27588 19.5181 1.74332 20.007 0.808472 21.9131C-0.425232 24.4266 -0.271973 25.5611 1.44064 26.5199C2.62073 27.1845 2.64752 27.1769 2.64752 26.3403C2.64752 25.6719 2.75482 25.5878 3.12646 25.9622C3.78546 26.6192 7.83527 26.6001 7.83527 25.9393C7.83527 25.0989 9.13025 24.5947 11.2299 24.6214C12.3295 24.6367 13.3371 24.4953 13.4751 24.3044C13.613 24.1134 14.5287 23.8727 15.5095 23.7619C17.1455 23.5786 17.3678 23.6626 18.1532 24.7627C18.6245 25.4236 19.0114 26.283 19.0114 26.6689C19.0114 27.5207 16.3754 30.0151 15.4674 30.0227C13.7279 30.038 13.0191 30.5384 12.613 32.0511C12.3065 33.1817 11.9846 33.5981 11.4138 33.5981C10.9846 33.5981 10.6322 33.7891 10.6322 34.0221C10.6322 34.2551 10.295 34.3392 9.87738 34.2093C9.43677 34.0679 8.8544 34.236 8.47891 34.6104C7.65518 35.4316 7.6705 35.7143 8.60153 36.5509C9.32565 37.2041 9.47125 37.1888 11.5938 36.1842C12.8199 35.6035 13.8275 34.9809 13.8275 34.7937C13.8275 34.0947 17.3563 33.2429 21.0114 33.0595C24.9041 32.8647 28.8351 31.7607 29.8044 30.5957C30.0995 30.2443 30.996 30.0151 32.0841 30.0151C33.6665 30.0151 34.0496 30.2022 35.337 31.6079C36.4634 32.8341 37.0918 33.2008 38.0841 33.2008C38.7929 33.2008 39.3715 33.0213 39.3715 32.8036C39.3715 32.307 45.8963 32.265 46.8618 32.7577C47.245 32.9525 48.0189 33.3231 48.5859 33.5866C49.153 33.8502 51.0036 35.1872 52.7009 36.5623C54.3982 37.9375 56.2679 39.2973 56.8579 39.5877C59.9192 41.0812 62.5322 43.1363 64.0724 45.264C65.2333 46.8683 66.2602 47.7966 67.4287 48.3046C68.3559 48.7057 70.1797 49.6836 71.4824 50.4743C72.785 51.265 74.1796 51.9106 74.5743 51.9106C77.5168 51.9106 69.9076 57.033 66.831 57.1209C66.1069 57.14 64.6127 57.3653 63.5207 57.6709C61.1759 58.3241 60.3828 58.6412 62.8655 58.2286C63.8425 58.0682 63.3866 58.1522 63.2257 58.5724C63.1031 58.8857 63.8311 59.2485 64.2717 58.9277C64.5284 58.7405 64.4901 59.9743 64.1491 60.6084C63.7659 61.3189 63.3751 61.487 62.3176 61.3953C61.5782 61.3304 60.8426 61.4068 60.6817 61.5672C60.5207 61.7276 59.8387 61.8613 59.1644 61.8652C57.8196 61.8804 56.5361 62.6444 56.5361 63.4389C56.5361 63.8095 56.674 63.8286 57.0648 63.5039C57.4211 63.2097 57.7238 63.1983 57.9997 63.4695C58.2717 63.7407 58.7583 63.7407 59.4939 63.4619C61.8311 62.5756 63.7238 63.4275 63.7238 65.3603C63.7238 66.4375 62.4709 66.789 59.4977 66.5445C56.9001 66.3306 56.2947 66.8119 58.425 67.404C60.3407 67.9349 64.3981 67.9502 64.7238 67.4269C64.8579 67.2092 65.2487 67.0296 65.5897 67.0296C65.9307 67.0296 66.5628 66.5827 66.9919 66.0326C68.9575 63.5421 73.4747 61.4717 76.9727 61.4641C77.7811 61.4641 79.8923 60.8949 81.6585 60.2035C84.4861 59.0996 84.9305 58.7863 85.3558 57.6175C85.9727 55.9138 86.7773 55.8985 92.6661 57.4876C95.919 58.3661 97.9381 58.6717 100.452 58.6717C107.352 58.6717 113.773 60.5167 116.946 63.4122C120.275 66.449 124.11 69.0274 125.674 69.2757C126.52 69.4094 127.298 69.6539 127.398 69.8181C127.497 69.9824 127.061 70.8304 126.428 71.7013C125.16 73.4432 122.988 74.6617 119.612 75.5097C117.674 75.9987 117.359 76.2202 116.942 77.4158C116.681 78.1607 116.455 79.3563 116.444 80.0783C116.417 81.6712 114.812 85.3153 114.133 85.3268C113.865 85.3306 113.379 85.7393 113.057 86.2321C112.394 87.2406 111.635 91.4424 111.919 92.5234C112.08 93.1308 112.268 93.0506 113.229 91.9696C113.846 91.2743 115.168 89.8419 116.16 88.7876C117.153 87.7333 118.091 86.3009 118.241 85.6095C118.639 83.8027 119.49 82.6682 121.467 81.3121C122.72 80.4526 123.202 79.8491 123.202 79.1424C123.202 78.2868 123.298 78.2218 123.946 78.6267C124.536 78.9935 125.13 78.9209 126.838 78.2715C128.022 77.8246 129.98 77.0797 131.195 76.6175C132.405 76.1553 133.712 75.7809 134.095 75.7809C135.405 75.7809 139.662 77.752 141.382 79.1539C142.325 79.9255 143.263 80.5558 143.463 80.5558C143.662 80.5558 145.072 81.3579 146.589 82.3397C148.106 83.3214 149.528 84.1274 149.75 84.135C149.968 84.1426 150.566 84.7538 151.072 85.4987C151.581 86.2436 152.566 87.0839 153.267 87.3666C154.907 88.0313 155.076 88.2681 157.754 93.6083C160.267 98.6199 160.294 99.0096 158.309 101.886C157.079 103.666 156.865 103.792 153.942 104.407C152.953 104.617 150.62 105.324 148.754 105.981C145.003 107.303 143.566 108.54 143.566 110.442C143.566 111.493 143.654 111.581 144.344 111.214C144.769 110.985 145.229 110.622 145.367 110.404C145.501 110.187 146.145 110.007 146.796 110.007C147.693 110.007 148.072 110.248 148.359 111C148.735 111.986 149.156 112.326 149.156 111.642L149.164 111.661Z" fill="#1D8406"/>
</svg>
