<?xml version="1.0" encoding="UTF-8"?>
<svg xmlns="http://www.w3.org/2000/svg" xmlns:xlink="http://www.w3.org/1999/xlink" version="1.1" viewBox="0 0 1440 810">
  <!-- Generator: Adobe Illustrator 29.1.0, SVG Export Plug-In . SVG Version: 2.1.0 Build 142)  -->
  <defs>
    <style>
      .st0, .st1, .st2 {
        fill: none;
      }

      .st3 {
        fill: url(#linear-gradient1);
      }

      .st3, .st4 {
        opacity: .4;
      }

      .st3, .st4, .st1, .st2 {
        mix-blend-mode: screen;
      }

      .st5 {
        fill: url(#linear-gradient2);
      }

      .st6 {
        mix-blend-mode: multiply;
        opacity: .5;
      }

      .st4 {
        fill: url(#linear-gradient);
      }

      .st7 {
        fill: url(#radial-gradient);
      }

      .st1 {
        stroke: #2a8a79;
        stroke-width: 3px;
      }

      .st8 {
        isolation: isolate;
      }

      .st2 {
        stroke: #17001d;
        stroke-width: 6px;
      }

      .st9 {
        clip-path: url(#clippath-1);
      }

      .st10 {
        opacity: .3;
      }

      .st11 {
        clip-path: url(#clippath);
      }
    </style>
    <clipPath id="clippath">
      <rect class="st0" width="1440" height="810"/>
    </clipPath>
    <radialGradient id="radial-gradient" cx="728.5" cy="310.6" fx="728.5" fy="310.6" r="1856.1" gradientUnits="userSpaceOnUse">
      <stop offset="0" stop-color="#304779"/>
      <stop offset="0" stop-color="#263860"/>
      <stop offset=".2" stop-color="#1d2a47"/>
      <stop offset=".3" stop-color="#162035"/>
      <stop offset=".4" stop-color="#12192a"/>
      <stop offset=".6" stop-color="#111827"/>
    </radialGradient>
    <linearGradient id="linear-gradient" x1="722.7" y1="894" x2="722.7" y2="187" gradientUnits="userSpaceOnUse">
      <stop offset="0" stop-color="#000"/>
      <stop offset="0" stop-color="#030809"/>
      <stop offset=".2" stop-color="#0b1e23"/>
      <stop offset=".3" stop-color="#18424c"/>
      <stop offset=".3" stop-color="#1c4c58"/>
      <stop offset=".4" stop-color="#1d4f5a"/>
      <stop offset=".4" stop-color="#205b62"/>
      <stop offset=".5" stop-color="#256e6e"/>
      <stop offset=".5" stop-color="#2d8980"/>
      <stop offset=".5" stop-color="#2a807a"/>
      <stop offset=".6" stop-color="#226467"/>
      <stop offset=".6" stop-color="#1d525c"/>
      <stop offset=".6" stop-color="#1c4c58"/>
      <stop offset=".7" stop-color="#123139"/>
      <stop offset=".8" stop-color="#081619"/>
      <stop offset=".9" stop-color="#020506"/>
      <stop offset="1" stop-color="#000"/>
    </linearGradient>
    <linearGradient id="linear-gradient1" x1="720" y1="693.3" x2="720" y2="377.2" gradientUnits="userSpaceOnUse">
      <stop offset="0" stop-color="#000"/>
      <stop offset="0" stop-color="#030809"/>
      <stop offset=".2" stop-color="#0b1e23"/>
      <stop offset=".3" stop-color="#18424c"/>
      <stop offset=".3" stop-color="#1c4c58"/>
      <stop offset=".4" stop-color="#1d4f5a"/>
      <stop offset=".4" stop-color="#205b62"/>
      <stop offset=".5" stop-color="#256e6e"/>
      <stop offset=".5" stop-color="#2d8980"/>
      <stop offset=".5" stop-color="#2a807a"/>
      <stop offset=".6" stop-color="#226467"/>
      <stop offset=".6" stop-color="#1d525c"/>
      <stop offset=".6" stop-color="#1c4c58"/>
      <stop offset=".7" stop-color="#153a43"/>
      <stop offset=".9" stop-color="#051012"/>
      <stop offset="1" stop-color="#000"/>
    </linearGradient>
    <clipPath id="clippath-1">
      <rect class="st0" x="-7.2" y="377.2" width="1454.3" height="344.2"/>
    </clipPath>
    <linearGradient id="linear-gradient2" x1="720" y1="617.2" x2="720" y2="812.2" gradientUnits="userSpaceOnUse">
      <stop offset="0" stop-color="#111827" stop-opacity="0"/>
      <stop offset=".2" stop-color="#111827" stop-opacity=".4"/>
      <stop offset=".5" stop-color="#111827" stop-opacity=".8"/>
      <stop offset=".7" stop-color="#111827"/>
    </linearGradient>
  </defs>
  <g class="st8">
    <g id="Layer_1">
      <g class="st11">
        <g>
          <rect class="st7" x="-7.2" width="1454.3" height="818.1"/>
          <rect class="st4" x="-4.5" y="187" width="1454.3" height="707"/>
          <rect class="st3" x="-9" y="377.2" width="1458" height="316.1"/>
          <g class="st10">
            <g class="st9">
              <g class="st6">
                <polyline class="st2" points="30.4 537.8 4.1 541 -24.2 544.5 -54.9 548.3 -88.3 552.4 -124.7 556.8 -164.4 561.7 -208.1 567.1 -256.4 573 -309.9 579.6 -369.7 587 -436.8 595.2 -512.8 604.6 -599.4 615.2 -699.1 627.5 -815.1 641.8 -951.7 658.6 -1115.1 678.7 -1313.8 703.1 -1560.8 733.5"/>
                <polyline class="st2" points="69.8 537.8 45 541 18.3 544.5 -10.7 548.3 -42.1 552.4 -76.4 556.8 -113.9 561.7 -155.1 567.1 -200.6 573 -251.1 579.6 -307.4 587 -370.7 595.2 -442.3 604.6 -524 615.2 -618 627.5 -727.3 641.8 -856.2 658.6 -1010.2 678.7 -1197.6 703.1 -1430.5 733.5"/>
                <polyline class="st2" points="109.2 537.8 85.9 541 60.8 544.5 33.6 548.3 4.1 552.4 -28.1 556.8 -63.4 561.7 -102.1 567.1 -144.8 573 -192.2 579.6 -245.2 587 -304.6 595.2 -371.9 604.6 -448.6 615.2 -536.9 627.5 -639.6 641.8 -760.7 658.6 -905.3 678.7 -1081.4 703.1 -1300.1 733.5"/>
                <polyline class="st2" points="148.6 537.8 126.9 541 103.4 544.5 77.9 548.3 50.3 552.4 20.1 556.8 -12.8 561.7 -49 567.1 -89 573 -133.4 579.6 -182.9 587 -238.5 595.2 -301.4 604.6 -373.2 615.2 -455.8 627.5 -551.9 641.8 -665.1 658.6 -800.5 678.7 -965.1 703.1 -1169.8 733.5"/>
                <polyline class="st2" points="188 537.8 167.8 541 145.9 544.5 122.2 548.3 96.5 552.4 68.4 556.8 37.7 561.7 4 567.1 -33.2 573 -74.5 579.6 -120.6 587 -172.4 595.2 -231 604.6 -297.8 615.2 -374.7 627.5 -464.2 641.8 -569.6 658.6 -695.6 678.7 -848.9 703.1 -1039.5 733.5"/>
                <polyline class="st2" points="227.4 537.8 208.7 541 188.4 544.5 166.5 548.3 142.6 552.4 116.7 556.8 88.3 561.7 57 567.1 22.6 573 -15.7 579.6 -58.4 587 -106.3 595.2 -160.5 604.6 -222.4 615.2 -293.6 627.5 -376.5 641.8 -474.1 658.6 -590.8 678.7 -732.7 703.1 -909.1 733.5"/>
                <polyline class="st2" points="266.8 537.8 249.6 541 230.9 544.5 210.8 548.3 188.8 552.4 164.9 556.8 138.8 561.7 110.1 567.1 78.4 573 43.2 579.6 3.9 587 -40.2 595.2 -90.1 604.6 -147 615.2 -212.5 627.5 -288.8 641.8 -378.6 658.6 -485.9 678.7 -616.5 703.1 -778.8 733.5"/>
                <polyline class="st2" points="306.3 537.8 290.5 541 273.5 544.5 255 548.3 235 552.4 213.2 556.8 189.3 561.7 163.1 567.1 134.2 573 102 579.6 66.2 587 25.9 595.2 -19.7 604.6 -71.6 615.2 -131.4 627.5 -201 641.8 -283 658.6 -381 678.7 -500.3 703.1 -648.5 733.5"/>
                <polyline class="st2" points="345.7 537.8 331.4 541 316 544.5 299.3 548.3 281.2 552.4 261.5 556.8 239.9 561.7 216.2 567.1 190 573 160.9 579.6 128.4 587 92 595.2 50.8 604.6 3.8 615.2 -50.4 627.5 -113.3 641.8 -187.5 658.6 -276.2 678.7 -384.1 703.1 -518.1 733.5"/>
                <polyline class="st2" points="385.1 537.8 372.3 541 358.5 544.5 343.6 548.3 327.4 552.4 309.7 556.8 290.4 561.7 269.2 567.1 245.8 573 219.7 579.6 190.7 587 158.1 595.2 121.2 604.6 79.2 615.2 30.7 627.5 -25.6 641.8 -92 658.6 -171.3 678.7 -267.8 703.1 -387.8 733.5"/>
                <polyline class="st2" points="424.5 537.8 413.2 541 401 544.5 387.9 548.3 373.6 552.4 358 556.8 341 561.7 322.2 567.1 301.5 573 278.6 579.6 253 587 224.2 595.2 191.7 604.6 154.6 615.2 111.8 627.5 62.1 641.8 3.6 658.6 -66.5 678.7 -151.6 703.1 -257.5 733.5"/>
                <polyline class="st2" points="463.9 537.8 454.1 541 443.6 544.5 432.2 548.3 419.8 552.4 406.3 556.8 391.5 561.7 375.3 567.1 357.3 573 337.4 579.6 315.3 587 290.3 595.2 262.1 604.6 229.9 615.2 192.9 627.5 149.8 641.8 99.1 658.6 38.4 678.7 -35.4 703.1 -127.2 733.5"/>
                <polyline class="st2" points="503.3 537.8 495 541 486.1 544.5 476.4 548.3 466 552.4 454.5 556.8 442 561.7 428.3 567.1 413.1 573 396.3 579.6 377.5 587 356.4 595.2 332.6 604.6 305.3 615.2 274 627.5 237.5 641.8 194.6 658.6 143.3 678.7 80.8 703.1 3.2 733.5"/>
                <polyline class="st2" points="542.7 537.8 535.9 541 528.6 544.5 520.7 548.3 512.2 552.4 502.8 556.8 492.6 561.7 481.3 567.1 468.9 573 455.2 579.6 439.8 587 422.5 595.2 403 604.6 380.7 615.2 355.1 627.5 325.3 641.8 290.1 658.6 248.1 678.7 197 703.1 133.5 733.5"/>
                <polyline class="st2" points="582.1 537.8 576.8 541 571.2 544.5 565 548.3 558.3 552.4 551.1 556.8 543.1 561.7 534.4 567.1 524.7 573 514 579.6 502.1 587 488.6 595.2 473.4 604.6 456.1 615.2 436.2 627.5 413 641.8 385.7 658.6 353 678.7 313.2 703.1 263.8 733.5"/>
                <polyline class="st2" points="621.5 537.8 617.7 541 613.7 544.5 609.3 548.3 604.5 552.4 599.3 556.8 593.7 561.7 587.4 567.1 580.5 573 572.9 579.6 564.3 587 554.7 595.2 543.9 604.6 531.5 615.2 517.3 627.5 500.7 641.8 481.2 658.6 457.8 678.7 429.5 703.1 394.2 733.5"/>
                <polyline class="st2" points="660.9 537.8 658.6 541 656.2 544.5 653.6 548.3 650.7 552.4 647.6 556.8 644.2 561.7 640.4 567.1 636.3 573 631.7 579.6 626.6 587 620.8 595.2 614.3 604.6 606.9 615.2 598.4 627.5 588.4 641.8 576.7 658.6 562.7 678.7 545.7 703.1 524.5 733.5"/>
                <polyline class="st2" points="700.3 537.8 699.5 541 698.7 544.5 697.9 548.3 696.9 552.4 695.9 556.8 694.7 561.7 693.5 567.1 692.1 573 690.6 579.6 688.9 587 686.9 595.2 684.8 604.6 682.3 615.2 679.5 627.5 676.1 641.8 672.2 658.6 667.6 678.7 661.9 703.1 654.8 733.5"/>
                <polyline class="st2" points="739.7 537.8 740.5 541 741.3 544.5 742.1 548.3 743.1 552.4 744.1 556.8 745.3 561.7 746.5 567.1 747.9 573 749.4 579.6 751.1 587 753 595.2 755.2 604.6 757.7 615.2 760.5 627.5 763.9 641.8 767.8 658.6 772.4 678.7 778.1 703.1 785.2 733.5"/>
                <polyline class="st2" points="779.1 537.8 781.4 541 783.8 544.5 786.4 548.3 789.3 552.4 792.4 556.8 795.8 561.7 799.6 567.1 803.7 573 808.3 579.6 813.4 587 819.2 595.2 825.7 604.6 833.1 615.2 841.6 627.5 851.6 641.8 863.3 658.6 877.3 678.7 894.3 703.1 915.5 733.5"/>
                <polyline class="st2" points="818.5 537.8 822.3 541 826.3 544.5 830.7 548.3 835.5 552.4 840.7 556.8 846.3 561.7 852.6 567.1 859.5 573 867.1 579.6 875.7 587 885.3 595.2 896.1 604.6 908.5 615.2 922.7 627.5 939.3 641.8 958.8 658.6 982.1 678.7 1010.5 703.1 1045.8 733.5"/>
                <polyline class="st2" points="857.9 537.8 863.2 541 868.8 544.5 875 548.3 881.7 552.4 888.9 556.8 896.9 561.7 905.6 567.1 915.3 573 926 579.6 937.9 587 951.4 595.2 966.5 604.6 983.9 615.2 1003.8 627.5 1027 641.8 1054.3 658.6 1087 678.7 1126.8 703.1 1176.2 733.5"/>
                <polyline class="st2" points="897.3 537.8 904.1 541 911.4 544.5 919.3 548.3 927.8 552.4 937.2 556.8 947.4 561.7 958.7 567.1 971.1 573 984.8 579.6 1000.2 587 1017.5 595.2 1037 604.6 1059.3 615.2 1084.9 627.5 1114.7 641.8 1149.9 658.6 1191.9 678.7 1243 703.1 1306.5 733.5"/>
                <polyline class="st2" points="936.7 537.8 945 541 953.9 544.5 963.6 548.3 974 552.4 985.5 556.8 998 561.7 1011.7 567.1 1026.9 573 1043.7 579.6 1062.5 587 1083.6 595.2 1107.4 604.6 1134.7 615.2 1166 627.5 1202.4 641.8 1245.4 658.6 1296.7 678.7 1359.2 703.1 1436.8 733.5"/>
                <polyline class="st2" points="976.1 537.8 985.9 541 996.4 544.5 1007.8 548.3 1020.2 552.4 1033.7 556.8 1048.5 561.7 1064.7 567.1 1082.7 573 1102.5 579.6 1124.7 587 1149.7 595.2 1177.9 604.6 1210 615.2 1247.1 627.5 1290.2 641.8 1340.9 658.6 1401.6 678.7 1475.4 703.1 1567.2 733.5"/>
                <polyline class="st2" points="1015.5 537.8 1026.8 541 1038.9 544.5 1052.1 548.3 1066.4 552.4 1082 556.8 1099 561.7 1117.8 567.1 1138.5 573 1161.4 579.6 1187 587 1215.8 595.2 1248.3 604.6 1285.4 615.2 1328.2 627.5 1377.9 641.8 1436.4 658.6 1506.4 678.7 1591.6 703.1 1697.5 733.5"/>
                <polyline class="st2" points="1054.9 537.8 1067.7 541 1081.5 544.5 1096.4 548.3 1112.6 552.4 1130.3 556.8 1149.6 561.7 1170.8 567.1 1194.2 573 1220.3 579.6 1249.3 587 1281.9 595.2 1318.8 604.6 1360.8 615.2 1409.3 627.5 1465.6 641.8 1532 658.6 1611.3 678.7 1707.8 703.1 1827.8 733.5"/>
                <polyline class="st2" points="1094.3 537.8 1108.6 541 1124 544.5 1140.7 548.3 1158.8 552.4 1178.5 556.8 1200.1 561.7 1223.8 567.1 1250 573 1279.1 579.6 1311.6 587 1348 595.2 1389.2 604.6 1436.2 615.2 1490.3 627.5 1553.3 641.8 1627.5 658.6 1716.2 678.7 1824 703.1 1958.1 733.5"/>
                <polyline class="st2" points="1133.7 537.8 1149.5 541 1166.5 544.5 1185 548.3 1205 552.4 1226.8 556.8 1250.6 561.7 1276.9 567.1 1305.8 573 1338 579.6 1373.8 587 1414.1 595.2 1459.7 604.6 1511.6 615.2 1571.4 627.5 1641 641.8 1723 658.6 1821 678.7 1940.3 703.1 2088.5 733.5"/>
                <polyline class="st2" points="1173.2 537.8 1190.4 541 1209.1 544.5 1229.3 548.3 1251.2 552.4 1275.1 556.8 1301.2 561.7 1329.9 567.1 1361.6 573 1396.8 579.6 1436.1 587 1480.2 595.2 1530.1 604.6 1587 615.2 1652.5 627.5 1728.8 641.8 1818.5 658.6 1925.9 678.7 2056.5 703.1 2218.8 733.5"/>
                <polyline class="st2" points="1212.5 537.8 1231.3 541 1251.6 544.5 1273.5 548.3 1297.4 552.4 1323.3 556.8 1351.7 561.7 1382.9 567.1 1417.4 573 1455.7 579.6 1498.4 587 1546.3 595.2 1600.5 604.6 1662.4 615.2 1733.6 627.5 1816.5 641.8 1914.1 658.6 2030.7 678.7 2172.7 703.1 2349.1 733.5"/>
                <polyline class="st2" points="1252 537.8 1272.2 541 1294.1 544.5 1317.8 548.3 1343.5 552.4 1371.6 556.8 1402.3 561.7 1436 567.1 1473.2 573 1514.5 579.6 1560.6 587 1612.4 595.2 1671 604.6 1737.8 615.2 1814.7 627.5 1904.2 641.8 2009.6 658.6 2135.6 678.7 2288.9 703.1 2479.5 733.5"/>
                <polyline class="st2" points="1291.4 537.8 1313.1 541 1336.6 544.5 1362.1 548.3 1389.7 552.4 1419.8 556.8 1452.8 561.7 1489 567.1 1529 573 1573.4 579.6 1622.9 587 1678.5 595.2 1741.4 604.6 1813.2 615.2 1895.8 627.5 1991.9 641.8 2105.1 658.6 2240.5 678.7 2405.1 703.1 2609.8 733.5"/>
                <polyline class="st2" points="1330.8 537.8 1354 541 1379.2 544.5 1406.4 548.3 1435.9 552.4 1468.1 556.8 1503.4 561.7 1542.1 567.1 1584.8 573 1632.2 579.6 1685.2 587 1744.6 595.2 1811.9 604.6 1888.6 615.2 1976.9 627.5 2079.6 641.8 2200.7 658.6 2345.3 678.7 2521.4 703.1 2740.1 733.5"/>
                <polyline class="st2" points="1370.2 537.8 1395 541 1421.7 544.5 1450.7 548.3 1482.1 552.4 1516.4 556.8 1553.9 561.7 1595.1 567.1 1640.6 573 1691.1 579.6 1747.4 587 1810.7 595.2 1882.3 604.6 1964 615.2 2058 627.5 2167.3 641.8 2296.2 658.6 2450.2 678.7 2637.6 703.1 2870.5 733.5"/>
                <polyline class="st2" points="1409.6 537.8 1435.9 541 1464.2 544.5 1494.9 548.3 1528.3 552.4 1564.7 556.8 1604.4 561.7 1648.1 567.1 1696.4 573 1749.9 579.6 1809.7 587 1876.8 595.2 1952.8 604.6 2039.4 615.2 2139.1 627.5 2255.1 641.8 2391.7 658.6 2555 678.7 2753.8 703.1 3000.8 733.5"/>
                <polyline class="st2" points="-48.4 537.8 -9 537.8 30.4 537.8 69.8 537.8 109.2 537.8 148.6 537.8 188 537.8 227.4 537.8 266.8 537.8 306.3 537.8 345.7 537.8 385.1 537.8 424.5 537.8 463.9 537.8 503.3 537.8 542.7 537.8 582.1 537.8 621.5 537.8 660.9 537.8 700.3 537.8 739.7 537.8 779.1 537.8 818.5 537.8 857.9 537.8 897.3 537.8 936.7 537.8 976.1 537.8 1015.5 537.8 1054.9 537.8 1094.3 537.8 1133.7 537.8 1173.2 537.8 1212.5 537.8 1252 537.8 1291.4 537.8 1330.8 537.8 1370.2 537.8 1409.6 537.8 1449 537.8 1488.4 537.8"/>
                <polyline class="st2" points="-77.7 541 -36.8 541 4.1 541 45 541 85.9 541 126.9 541 167.8 541 208.7 541 249.6 541 290.5 541 331.4 541 372.3 541 413.2 541 454.1 541 495 541 535.9 541 576.8 541 617.7 541 658.6 541 699.5 541 740.5 541 781.4 541 822.3 541 863.2 541 904.1 541 945 541 985.9 541 1026.8 541 1067.7 541 1108.6 541 1149.5 541 1190.4 541 1231.3 541 1272.2 541 1313.1 541 1354 541 1395 541 1435.9 541 1476.8 541 1517.7 541"/>
                <polyline class="st2" points="-109.3 544.5 -66.8 544.5 -24.2 544.5 18.3 544.5 60.8 544.5 103.4 544.5 145.9 544.5 188.4 544.5 230.9 544.5 273.5 544.5 316 544.5 358.5 544.5 401 544.5 443.6 544.5 486.1 544.5 528.6 544.5 571.2 544.5 613.7 544.5 656.2 544.5 698.7 544.5 741.3 544.5 783.8 544.5 826.3 544.5 868.8 544.5 911.4 544.5 953.9 544.5 996.4 544.5 1038.9 544.5 1081.5 544.5 1124 544.5 1166.5 544.5 1209.1 544.5 1251.6 544.5 1294.1 544.5 1336.6 544.5 1379.2 544.5 1421.7 544.5 1464.2 544.5 1506.8 544.5 1549.3 544.5"/>
                <polyline class="st2" points="-143.5 548.3 -99.2 548.3 -54.9 548.3 -10.7 548.3 33.6 548.3 77.9 548.3 122.2 548.3 166.5 548.3 210.8 548.3 255 548.3 299.3 548.3 343.6 548.3 387.9 548.3 432.2 548.3 476.4 548.3 520.7 548.3 565 548.3 609.3 548.3 653.6 548.3 697.9 548.3 742.1 548.3 786.4 548.3 830.7 548.3 875 548.3 919.3 548.3 963.6 548.3 1007.8 548.3 1052.1 548.3 1096.4 548.3 1140.7 548.3 1185 548.3 1229.3 548.3 1273.5 548.3 1317.8 548.3 1362.1 548.3 1406.4 548.3 1450.7 548.3 1494.9 548.3 1539.2 548.3 1583.5 548.3"/>
                <polyline class="st2" points="-180.7 552.4 -134.5 552.4 -88.3 552.4 -42.1 552.4 4.1 552.4 50.3 552.4 96.5 552.4 142.6 552.4 188.8 552.4 235 552.4 281.2 552.4 327.4 552.4 373.6 552.4 419.8 552.4 466 552.4 512.2 552.4 558.3 552.4 604.5 552.4 650.7 552.4 696.9 552.4 743.1 552.4 789.3 552.4 835.5 552.4 881.7 552.4 927.8 552.4 974 552.4 1020.2 552.4 1066.4 552.4 1112.6 552.4 1158.8 552.4 1205 552.4 1251.2 552.4 1297.4 552.4 1343.5 552.4 1389.7 552.4 1435.9 552.4 1482.1 552.4 1528.3 552.4 1574.5 552.4 1620.7 552.4"/>
                <polyline class="st2" points="-221.2 556.8 -172.9 556.8 -124.7 556.8 -76.4 556.8 -28.1 556.8 20.1 556.8 68.4 556.8 116.7 556.8 164.9 556.8 213.2 556.8 261.5 556.8 309.7 556.8 358 556.8 406.3 556.8 454.5 556.8 502.8 556.8 551.1 556.8 599.3 556.8 647.6 556.8 695.9 556.8 744.1 556.8 792.4 556.8 840.7 556.8 888.9 556.8 937.2 556.8 985.5 556.8 1033.7 556.8 1082 556.8 1130.3 556.8 1178.5 556.8 1226.8 556.8 1275.1 556.8 1323.3 556.8 1371.6 556.8 1419.8 556.8 1468.1 556.8 1516.4 556.8 1564.7 556.8 1612.9 556.8 1661.2 556.8"/>
                <polyline class="st2" points="-265.5 561.7 -215 561.7 -164.4 561.7 -113.9 561.7 -63.4 561.7 -12.8 561.7 37.7 561.7 88.3 561.7 138.8 561.7 189.3 561.7 239.9 561.7 290.4 561.7 341 561.7 391.5 561.7 442 561.7 492.6 561.7 543.1 561.7 593.7 561.7 644.2 561.7 694.7 561.7 745.3 561.7 795.8 561.7 846.3 561.7 896.9 561.7 947.4 561.7 998 561.7 1048.5 561.7 1099 561.7 1149.6 561.7 1200.1 561.7 1250.6 561.7 1301.2 561.7 1351.7 561.7 1402.3 561.7 1452.8 561.7 1503.4 561.7 1553.9 561.7 1604.4 561.7 1655 561.7 1705.5 561.7"/>
                <polyline class="st2" points="-314.2 567.1 -261.2 567.1 -208.1 567.1 -155.1 567.1 -102.1 567.1 -49 567.1 4 567.1 57 567.1 110.1 567.1 163.1 567.1 216.2 567.1 269.2 567.1 322.2 567.1 375.3 567.1 428.3 567.1 481.3 567.1 534.4 567.1 587.4 567.1 640.4 567.1 693.5 567.1 746.5 567.1 799.6 567.1 852.6 567.1 905.6 567.1 958.7 567.1 1011.7 567.1 1064.7 567.1 1117.8 567.1 1170.8 567.1 1223.8 567.1 1276.9 567.1 1329.9 567.1 1382.9 567.1 1436 567.1 1489 567.1 1542.1 567.1 1595.1 567.1 1648.1 567.1 1701.2 567.1 1754.2 567.1"/>
                <polyline class="st2" points="-368 573 -312.2 573 -256.4 573 -200.6 573 -144.8 573 -89 573 -33.2 573 22.6 573 78.4 573 134.2 573 190 573 245.8 573 301.5 573 357.3 573 413.1 573 468.9 573 524.7 573 580.5 573 636.3 573 692.1 573 747.9 573 803.7 573 859.5 573 915.3 573 971.1 573 1026.9 573 1082.7 573 1138.5 573 1194.2 573 1250 573 1305.8 573 1361.6 573 1417.4 573 1473.2 573 1529 573 1584.8 573 1640.6 573 1696.4 573 1752.2 573 1808 573"/>
                <polyline class="st2" points="-427.6 579.6 -368.8 579.6 -309.9 579.6 -251.1 579.6 -192.2 579.6 -133.4 579.6 -74.5 579.6 -15.7 579.6 43.2 579.6 102 579.6 160.9 579.6 219.7 579.6 278.6 579.6 337.4 579.6 396.3 579.6 455.2 579.6 514 579.6 572.9 579.6 631.7 579.6 690.6 579.6 749.4 579.6 808.3 579.6 867.1 579.6 926 579.6 984.8 579.6 1043.7 579.6 1102.5 579.6 1161.4 579.6 1220.3 579.6 1279.1 579.6 1338 579.6 1396.8 579.6 1455.7 579.6 1514.5 579.6 1573.4 579.6 1632.2 579.6 1691.1 579.6 1749.9 579.6 1808.8 579.6 1867.6 579.6"/>
                <polyline class="st2" points="-494.2 587 -432 587 -369.7 587 -307.4 587 -245.2 587 -182.9 587 -120.6 587 -58.4 587 3.9 587 66.2 587 128.4 587 190.7 587 253 587 315.3 587 377.5 587 439.8 587 502.1 587 564.3 587 626.6 587 688.9 587 751.1 587 813.4 587 875.7 587 937.9 587 1000.2 587 1062.5 587 1124.7 587 1187 587 1249.3 587 1311.6 587 1373.8 587 1436.1 587 1498.4 587 1560.6 587 1622.9 587 1685.2 587 1747.4 587 1809.7 587 1872 587 1934.2 587"/>
                <polyline class="st2" points="-569 595.2 -502.9 595.2 -436.8 595.2 -370.7 595.2 -304.6 595.2 -238.5 595.2 -172.4 595.2 -106.3 595.2 -40.2 595.2 25.9 595.2 92 595.2 158.1 595.2 224.2 595.2 290.3 595.2 356.4 595.2 422.5 595.2 488.6 595.2 554.7 595.2 620.8 595.2 686.9 595.2 753 595.2 819.2 595.2 885.3 595.2 951.4 595.2 1017.5 595.2 1083.6 595.2 1149.7 595.2 1215.8 595.2 1281.9 595.2 1348 595.2 1414.1 595.2 1480.2 595.2 1546.3 595.2 1612.4 595.2 1678.5 595.2 1744.6 595.2 1810.7 595.2 1876.8 595.2 1942.9 595.2 2009 595.2"/>
                <polyline class="st2" points="-653.7 604.6 -583.2 604.6 -512.8 604.6 -442.3 604.6 -371.9 604.6 -301.4 604.6 -231 604.6 -160.5 604.6 -90.1 604.6 -19.7 604.6 50.8 604.6 121.2 604.6 191.7 604.6 262.1 604.6 332.6 604.6 403 604.6 473.4 604.6 543.9 604.6 614.3 604.6 684.8 604.6 755.2 604.6 825.7 604.6 896.1 604.6 966.5 604.6 1037 604.6 1107.4 604.6 1177.9 604.6 1248.3 604.6 1318.8 604.6 1389.2 604.6 1459.7 604.6 1530.1 604.6 1600.5 604.6 1671 604.6 1741.4 604.6 1811.9 604.6 1882.3 604.6 1952.8 604.6 2023.2 604.6 2093.6 604.6"/>
                <polyline class="st2" points="-750.2 615.2 -674.8 615.2 -599.4 615.2 -524 615.2 -448.6 615.2 -373.2 615.2 -297.8 615.2 -222.4 615.2 -147 615.2 -71.6 615.2 3.8 615.2 79.2 615.2 154.6 615.2 229.9 615.2 305.3 615.2 380.7 615.2 456.1 615.2 531.5 615.2 606.9 615.2 682.3 615.2 757.7 615.2 833.1 615.2 908.5 615.2 983.9 615.2 1059.3 615.2 1134.7 615.2 1210 615.2 1285.4 615.2 1360.8 615.2 1436.2 615.2 1511.6 615.2 1587 615.2 1662.4 615.2 1737.8 615.2 1813.2 615.2 1888.6 615.2 1964 615.2 2039.4 615.2 2114.8 615.2 2190.2 615.2"/>
                <polyline class="st2" points="-861.2 627.5 -780.2 627.5 -699.1 627.5 -618 627.5 -536.9 627.5 -455.8 627.5 -374.7 627.5 -293.6 627.5 -212.5 627.5 -131.4 627.5 -50.4 627.5 30.7 627.5 111.8 627.5 192.9 627.5 274 627.5 355.1 627.5 436.2 627.5 517.3 627.5 598.4 627.5 679.5 627.5 760.5 627.5 841.6 627.5 922.7 627.5 1003.8 627.5 1084.9 627.5 1166 627.5 1247.1 627.5 1328.2 627.5 1409.3 627.5 1490.3 627.5 1571.4 627.5 1652.5 627.5 1733.6 627.5 1814.7 627.5 1895.8 627.5 1976.9 627.5 2058 627.5 2139.1 627.5 2220.2 627.5 2301.2 627.5"/>
                <polyline class="st2" points="-990.5 641.8 -902.8 641.8 -815.1 641.8 -727.3 641.8 -639.6 641.8 -551.9 641.8 -464.2 641.8 -376.5 641.8 -288.8 641.8 -201 641.8 -113.3 641.8 -25.6 641.8 62.1 641.8 149.8 641.8 237.5 641.8 325.3 641.8 413 641.8 500.7 641.8 588.4 641.8 676.1 641.8 763.9 641.8 851.6 641.8 939.3 641.8 1027 641.8 1114.7 641.8 1202.4 641.8 1290.2 641.8 1377.9 641.8 1465.6 641.8 1553.3 641.8 1641 641.8 1728.8 641.8 1816.5 641.8 1904.2 641.8 1991.9 641.8 2079.6 641.8 2167.3 641.8 2255.1 641.8 2342.8 641.8 2430.5 641.8"/>
                <polyline class="st2" points="-1142.8 658.6 -1047.2 658.6 -951.7 658.6 -856.2 658.6 -760.7 658.6 -665.1 658.6 -569.6 658.6 -474.1 658.6 -378.6 658.6 -283 658.6 -187.5 658.6 -92 658.6 3.6 658.6 99.1 658.6 194.6 658.6 290.1 658.6 385.7 658.6 481.2 658.6 576.7 658.6 672.2 658.6 767.8 658.6 863.3 658.6 958.8 658.6 1054.3 658.6 1149.9 658.6 1245.4 658.6 1340.9 658.6 1436.4 658.6 1532 658.6 1627.5 658.6 1723 658.6 1818.5 658.6 1914.1 658.6 2009.6 658.6 2105.1 658.6 2200.7 658.6 2296.2 658.6 2391.7 658.6 2487.2 658.6 2582.8 658.6"/>
                <polyline class="st2" points="-1324.8 678.7 -1219.9 678.7 -1115.1 678.7 -1010.2 678.7 -905.3 678.7 -800.5 678.7 -695.6 678.7 -590.8 678.7 -485.9 678.7 -381 678.7 -276.2 678.7 -171.3 678.7 -66.5 678.7 38.4 678.7 143.3 678.7 248.1 678.7 353 678.7 457.8 678.7 562.7 678.7 667.6 678.7 772.4 678.7 877.3 678.7 982.1 678.7 1087 678.7 1191.9 678.7 1296.7 678.7 1401.6 678.7 1506.4 678.7 1611.3 678.7 1716.2 678.7 1821 678.7 1925.9 678.7 2030.7 678.7 2135.6 678.7 2240.5 678.7 2345.3 678.7 2450.2 678.7 2555 678.7 2659.9 678.7 2764.8 678.7"/>
                <polyline class="st2" points="-1546.2 703.1 -1430 703.1 -1313.8 703.1 -1197.6 703.1 -1081.4 703.1 -965.1 703.1 -848.9 703.1 -732.7 703.1 -616.5 703.1 -500.3 703.1 -384.1 703.1 -267.8 703.1 -151.6 703.1 -35.4 703.1 80.8 703.1 197 703.1 313.2 703.1 429.5 703.1 545.7 703.1 661.9 703.1 778.1 703.1 894.3 703.1 1010.5 703.1 1126.8 703.1 1243 703.1 1359.2 703.1 1475.4 703.1 1591.6 703.1 1707.8 703.1 1824 703.1 1940.3 703.1 2056.5 703.1 2172.7 703.1 2288.9 703.1 2405.1 703.1 2521.4 703.1 2637.6 703.1 2753.8 703.1 2870 703.1 2986.2 703.1"/>
                <polyline class="st2" points="-1821.5 733.5 -1691.1 733.5 -1560.8 733.5 -1430.5 733.5 -1300.1 733.5 -1169.8 733.5 -1039.5 733.5 -909.1 733.5 -778.8 733.5 -648.5 733.5 -518.1 733.5 -387.8 733.5 -257.5 733.5 -127.2 733.5 3.2 733.5 133.5 733.5 263.8 733.5 394.2 733.5 524.5 733.5 654.8 733.5 785.2 733.5 915.5 733.5 1045.8 733.5 1176.2 733.5 1306.5 733.5 1436.8 733.5 1567.2 733.5 1697.5 733.5 1827.8 733.5 1958.1 733.5 2088.5 733.5 2218.8 733.5 2349.1 733.5 2479.5 733.5 2609.8 733.5 2740.1 733.5 2870.5 733.5 3000.8 733.5 3131.1 733.5 3261.4 733.5"/>
              </g>
              <g>
                <polyline class="st1" points="30.4 535.6 4.1 538.8 -24.2 542.2 -54.9 545.9 -88.3 549.9 -124.7 554.3 -164.4 559.1 -208.1 564.4 -256.4 570.2 -309.9 576.7 -369.7 583.9 -436.8 592 -512.8 601.1 -599.4 611.6 -699.1 623.6 -815.1 637.6 -951.7 654.1 -1115.1 673.8 -1313.8 697.8 -1560.8 727.5"/>
                <polyline class="st1" points="69.8 535.6 45 538.8 18.3 542.2 -10.7 545.9 -42.1 549.9 -76.4 554.3 -113.9 559.1 -155.1 564.4 -200.6 570.2 -251.1 576.7 -307.4 583.9 -370.7 592 -442.3 601.1 -524 611.6 -618 623.6 -727.3 637.6 -856.2 654.1 -1010.2 673.8 -1197.6 697.8 -1430.5 727.5"/>
                <polyline class="st1" points="109.2 535.6 85.9 538.8 60.8 542.2 33.6 545.9 4.1 549.9 -28.1 554.3 -63.4 559.1 -102.1 564.4 -144.8 570.2 -192.2 576.7 -245.2 583.9 -304.6 592 -371.9 601.1 -448.6 611.6 -536.9 623.6 -639.6 637.6 -760.7 654.1 -905.3 673.8 -1081.4 697.8 -1300.1 727.5"/>
                <polyline class="st1" points="148.6 535.6 126.9 538.8 103.4 542.2 77.9 545.9 50.3 549.9 20.1 554.3 -12.8 559.1 -49 564.4 -89 570.2 -133.4 576.7 -182.9 583.9 -238.5 592 -301.4 601.1 -373.2 611.6 -455.8 623.6 -551.9 637.6 -665.1 654.1 -800.5 673.8 -965.1 697.8 -1169.8 727.5"/>
                <polyline class="st1" points="188 535.6 167.8 538.8 145.9 542.2 122.2 545.9 96.5 549.9 68.4 554.3 37.7 559.1 4 564.4 -33.2 570.2 -74.5 576.7 -120.6 583.9 -172.4 592 -231 601.1 -297.8 611.6 -374.7 623.6 -464.2 637.6 -569.6 654.1 -695.6 673.8 -848.9 697.8 -1039.5 727.5"/>
                <polyline class="st1" points="227.4 535.6 208.7 538.8 188.4 542.2 166.5 545.9 142.6 549.9 116.7 554.3 88.3 559.1 57 564.4 22.6 570.2 -15.7 576.7 -58.4 583.9 -106.3 592 -160.5 601.1 -222.4 611.6 -293.6 623.6 -376.5 637.6 -474.1 654.1 -590.8 673.8 -732.7 697.8 -909.1 727.5"/>
                <polyline class="st1" points="266.8 535.6 249.6 538.8 230.9 542.2 210.8 545.9 188.8 549.9 164.9 554.3 138.8 559.1 110.1 564.4 78.4 570.2 43.2 576.7 3.9 583.9 -40.2 592 -90.1 601.1 -147 611.6 -212.5 623.6 -288.8 637.6 -378.6 654.1 -485.9 673.8 -616.5 697.8 -778.8 727.5"/>
                <polyline class="st1" points="306.3 535.6 290.5 538.8 273.5 542.2 255 545.9 235 549.9 213.2 554.3 189.3 559.1 163.1 564.4 134.2 570.2 102 576.7 66.2 583.9 25.9 592 -19.7 601.1 -71.6 611.6 -131.4 623.6 -201 637.6 -283 654.1 -381 673.8 -500.3 697.8 -648.5 727.5"/>
                <polyline class="st1" points="345.7 535.6 331.4 538.8 316 542.2 299.3 545.9 281.2 549.9 261.5 554.3 239.9 559.1 216.2 564.4 190 570.2 160.9 576.7 128.4 583.9 92 592 50.8 601.1 3.8 611.6 -50.4 623.6 -113.3 637.6 -187.5 654.1 -276.2 673.8 -384.1 697.8 -518.1 727.5"/>
                <polyline class="st1" points="385.1 535.6 372.3 538.8 358.5 542.2 343.6 545.9 327.4 549.9 309.7 554.3 290.4 559.1 269.2 564.4 245.8 570.2 219.7 576.7 190.7 583.9 158.1 592 121.2 601.1 79.2 611.6 30.7 623.6 -25.6 637.6 -92 654.1 -171.3 673.8 -267.8 697.8 -387.8 727.5"/>
                <polyline class="st1" points="424.5 535.6 413.2 538.8 401 542.2 387.9 545.9 373.6 549.9 358 554.3 341 559.1 322.2 564.4 301.5 570.2 278.6 576.7 253 583.9 224.2 592 191.7 601.1 154.6 611.6 111.8 623.6 62.1 637.6 3.6 654.1 -66.5 673.8 -151.6 697.8 -257.5 727.5"/>
                <polyline class="st1" points="463.9 535.6 454.1 538.8 443.6 542.2 432.2 545.9 419.8 549.9 406.3 554.3 391.5 559.1 375.3 564.4 357.3 570.2 337.4 576.7 315.3 583.9 290.3 592 262.1 601.1 229.9 611.6 192.9 623.6 149.8 637.6 99.1 654.1 38.4 673.8 -35.4 697.8 -127.2 727.5"/>
                <polyline class="st1" points="503.3 535.6 495 538.8 486.1 542.2 476.4 545.9 466 549.9 454.5 554.3 442 559.1 428.3 564.4 413.1 570.2 396.3 576.7 377.5 583.9 356.4 592 332.6 601.1 305.3 611.6 274 623.6 237.5 637.6 194.6 654.1 143.3 673.8 80.8 697.8 3.2 727.5"/>
                <polyline class="st1" points="542.7 535.6 535.9 538.8 528.6 542.2 520.7 545.9 512.2 549.9 502.8 554.3 492.6 559.1 481.3 564.4 468.9 570.2 455.2 576.7 439.8 583.9 422.5 592 403 601.1 380.7 611.6 355.1 623.6 325.3 637.6 290.1 654.1 248.1 673.8 197 697.8 133.5 727.5"/>
                <polyline class="st1" points="582.1 535.6 576.8 538.8 571.2 542.2 565 545.9 558.3 549.9 551.1 554.3 543.1 559.1 534.4 564.4 524.7 570.2 514 576.7 502.1 583.9 488.6 592 473.4 601.1 456.1 611.6 436.2 623.6 413 637.6 385.7 654.1 353 673.8 313.2 697.8 263.8 727.5"/>
                <polyline class="st1" points="621.5 535.6 617.7 538.8 613.7 542.2 609.3 545.9 604.5 549.9 599.3 554.3 593.7 559.1 587.4 564.4 580.5 570.2 572.9 576.7 564.3 583.9 554.7 592 543.9 601.1 531.5 611.6 517.3 623.6 500.7 637.6 481.2 654.1 457.8 673.8 429.5 697.8 394.2 727.5"/>
                <polyline class="st1" points="660.9 535.6 658.6 538.8 656.2 542.2 653.6 545.9 650.7 549.9 647.6 554.3 644.2 559.1 640.4 564.4 636.3 570.2 631.7 576.7 626.6 583.9 620.8 592 614.3 601.1 606.9 611.6 598.4 623.6 588.4 637.6 576.7 654.1 562.7 673.8 545.7 697.8 524.5 727.5"/>
                <polyline class="st1" points="700.3 535.6 699.5 538.8 698.7 542.2 697.9 545.9 696.9 549.9 695.9 554.3 694.7 559.1 693.5 564.4 692.1 570.2 690.6 576.7 688.9 583.9 686.9 592 684.8 601.1 682.3 611.6 679.5 623.6 676.1 637.6 672.2 654.1 667.6 673.8 661.9 697.8 654.8 727.5"/>
                <polyline class="st1" points="739.7 535.6 740.5 538.8 741.3 542.2 742.1 545.9 743.1 549.9 744.1 554.3 745.3 559.1 746.5 564.4 747.9 570.2 749.4 576.7 751.1 583.9 753 592 755.2 601.1 757.7 611.6 760.5 623.6 763.9 637.6 767.8 654.1 772.4 673.8 778.1 697.8 785.2 727.5"/>
                <polyline class="st1" points="779.1 535.6 781.4 538.8 783.8 542.2 786.4 545.9 789.3 549.9 792.4 554.3 795.8 559.1 799.6 564.4 803.7 570.2 808.3 576.7 813.4 583.9 819.2 592 825.7 601.1 833.1 611.6 841.6 623.6 851.6 637.6 863.3 654.1 877.3 673.8 894.3 697.8 915.5 727.5"/>
                <polyline class="st1" points="818.5 535.6 822.3 538.8 826.3 542.2 830.7 545.9 835.5 549.9 840.7 554.3 846.3 559.1 852.6 564.4 859.5 570.2 867.1 576.7 875.7 583.9 885.3 592 896.1 601.1 908.5 611.6 922.7 623.6 939.3 637.6 958.8 654.1 982.1 673.8 1010.5 697.8 1045.8 727.5"/>
                <polyline class="st1" points="857.9 535.6 863.2 538.8 868.8 542.2 875 545.9 881.7 549.9 888.9 554.3 896.9 559.1 905.6 564.4 915.3 570.2 926 576.7 937.9 583.9 951.4 592 966.5 601.1 983.9 611.6 1003.8 623.6 1027 637.6 1054.3 654.1 1087 673.8 1126.8 697.8 1176.2 727.5"/>
                <polyline class="st1" points="897.3 535.6 904.1 538.8 911.4 542.2 919.3 545.9 927.8 549.9 937.2 554.3 947.4 559.1 958.7 564.4 971.1 570.2 984.8 576.7 1000.2 583.9 1017.5 592 1037 601.1 1059.3 611.6 1084.9 623.6 1114.7 637.6 1149.9 654.1 1191.9 673.8 1243 697.8 1306.5 727.5"/>
                <polyline class="st1" points="936.7 535.6 945 538.8 953.9 542.2 963.6 545.9 974 549.9 985.5 554.3 998 559.1 1011.7 564.4 1026.9 570.2 1043.7 576.7 1062.5 583.9 1083.6 592 1107.4 601.1 1134.7 611.6 1166 623.6 1202.4 637.6 1245.4 654.1 1296.7 673.8 1359.2 697.8 1436.8 727.5"/>
                <polyline class="st1" points="976.1 535.6 985.9 538.8 996.4 542.2 1007.8 545.9 1020.2 549.9 1033.7 554.3 1048.5 559.1 1064.7 564.4 1082.7 570.2 1102.5 576.7 1124.7 583.9 1149.7 592 1177.9 601.1 1210 611.6 1247.1 623.6 1290.2 637.6 1340.9 654.1 1401.6 673.8 1475.4 697.8 1567.2 727.5"/>
                <polyline class="st1" points="1015.5 535.6 1026.8 538.8 1038.9 542.2 1052.1 545.9 1066.4 549.9 1082 554.3 1099 559.1 1117.8 564.4 1138.5 570.2 1161.4 576.7 1187 583.9 1215.8 592 1248.3 601.1 1285.4 611.6 1328.2 623.6 1377.9 637.6 1436.4 654.1 1506.4 673.8 1591.6 697.8 1697.5 727.5"/>
                <polyline class="st1" points="1054.9 535.6 1067.7 538.8 1081.5 542.2 1096.4 545.9 1112.6 549.9 1130.3 554.3 1149.6 559.1 1170.8 564.4 1194.2 570.2 1220.3 576.7 1249.3 583.9 1281.9 592 1318.8 601.1 1360.8 611.6 1409.3 623.6 1465.6 637.6 1532 654.1 1611.3 673.8 1707.8 697.8 1827.8 727.5"/>
                <polyline class="st1" points="1094.3 535.6 1108.6 538.8 1124 542.2 1140.7 545.9 1158.8 549.9 1178.5 554.3 1200.1 559.1 1223.8 564.4 1250 570.2 1279.1 576.7 1311.6 583.9 1348 592 1389.2 601.1 1436.2 611.6 1490.3 623.6 1553.3 637.6 1627.5 654.1 1716.2 673.8 1824 697.8 1958.1 727.5"/>
                <polyline class="st1" points="1133.7 535.6 1149.5 538.8 1166.5 542.2 1185 545.9 1205 549.9 1226.8 554.3 1250.6 559.1 1276.9 564.4 1305.8 570.2 1338 576.7 1373.8 583.9 1414.1 592 1459.7 601.1 1511.6 611.6 1571.4 623.6 1641 637.6 1723 654.1 1821 673.8 1940.3 697.8 2088.5 727.5"/>
                <polyline class="st1" points="1173.2 535.6 1190.4 538.8 1209.1 542.2 1229.3 545.9 1251.2 549.9 1275.1 554.3 1301.2 559.1 1329.9 564.4 1361.6 570.2 1396.8 576.7 1436.1 583.9 1480.2 592 1530.1 601.1 1587 611.6 1652.5 623.6 1728.8 637.6 1818.5 654.1 1925.9 673.8 2056.5 697.8 2218.8 727.5"/>
                <polyline class="st1" points="1212.5 535.6 1231.3 538.8 1251.6 542.2 1273.5 545.9 1297.4 549.9 1323.3 554.3 1351.7 559.1 1382.9 564.4 1417.4 570.2 1455.7 576.7 1498.4 583.9 1546.3 592 1600.5 601.1 1662.4 611.6 1733.6 623.6 1816.5 637.6 1914.1 654.1 2030.7 673.8 2172.7 697.8 2349.1 727.5"/>
                <polyline class="st1" points="1252 535.6 1272.2 538.8 1294.1 542.2 1317.8 545.9 1343.5 549.9 1371.6 554.3 1402.3 559.1 1436 564.4 1473.2 570.2 1514.5 576.7 1560.6 583.9 1612.4 592 1671 601.1 1737.8 611.6 1814.7 623.6 1904.2 637.6 2009.6 654.1 2135.6 673.8 2288.9 697.8 2479.5 727.5"/>
                <polyline class="st1" points="1291.4 535.6 1313.1 538.8 1336.6 542.2 1362.1 545.9 1389.7 549.9 1419.8 554.3 1452.8 559.1 1489 564.4 1529 570.2 1573.4 576.7 1622.9 583.9 1678.5 592 1741.4 601.1 1813.2 611.6 1895.8 623.6 1991.9 637.6 2105.1 654.1 2240.5 673.8 2405.1 697.8 2609.8 727.5"/>
                <polyline class="st1" points="1330.8 535.6 1354 538.8 1379.2 542.2 1406.4 545.9 1435.9 549.9 1468.1 554.3 1503.4 559.1 1542.1 564.4 1584.8 570.2 1632.2 576.7 1685.2 583.9 1744.6 592 1811.9 601.1 1888.6 611.6 1976.9 623.6 2079.6 637.6 2200.7 654.1 2345.3 673.8 2521.4 697.8 2740.1 727.5"/>
                <polyline class="st1" points="1370.2 535.6 1395 538.8 1421.7 542.2 1450.7 545.9 1482.1 549.9 1516.4 554.3 1553.9 559.1 1595.1 564.4 1640.6 570.2 1691.1 576.7 1747.4 583.9 1810.7 592 1882.3 601.1 1964 611.6 2058 623.6 2167.3 637.6 2296.2 654.1 2450.2 673.8 2637.6 697.8 2870.5 727.5"/>
                <polyline class="st1" points="1409.6 535.6 1435.9 538.8 1464.2 542.2 1494.9 545.9 1528.3 549.9 1564.7 554.3 1604.4 559.1 1648.1 564.4 1696.4 570.2 1749.9 576.7 1809.7 583.9 1876.8 592 1952.8 601.1 2039.4 611.6 2139.1 623.6 2255.1 637.6 2391.7 654.1 2555 673.8 2753.8 697.8 3000.8 727.5"/>
                <polyline class="st1" points="-48.4 535.6 -9 535.6 30.4 535.6 69.8 535.6 109.2 535.6 148.6 535.6 188 535.6 227.4 535.6 266.8 535.6 306.3 535.6 345.7 535.6 385.1 535.6 424.5 535.6 463.9 535.6 503.3 535.6 542.7 535.6 582.1 535.6 621.5 535.6 660.9 535.6 700.3 535.6 739.7 535.6 779.1 535.6 818.5 535.6 857.9 535.6 897.3 535.6 936.7 535.6 976.1 535.6 1015.5 535.6 1054.9 535.6 1094.3 535.6 1133.7 535.6 1173.2 535.6 1212.5 535.6 1252 535.6 1291.4 535.6 1330.8 535.6 1370.2 535.6 1409.6 535.6 1449 535.6 1488.4 535.6"/>
                <polyline class="st1" points="-77.7 538.8 -36.8 538.8 4.1 538.8 45 538.8 85.9 538.8 126.9 538.8 167.8 538.8 208.7 538.8 249.6 538.8 290.5 538.8 331.4 538.8 372.3 538.8 413.2 538.8 454.1 538.8 495 538.8 535.9 538.8 576.8 538.8 617.7 538.8 658.6 538.8 699.5 538.8 740.5 538.8 781.4 538.8 822.3 538.8 863.2 538.8 904.1 538.8 945 538.8 985.9 538.8 1026.8 538.8 1067.7 538.8 1108.6 538.8 1149.5 538.8 1190.4 538.8 1231.3 538.8 1272.2 538.8 1313.1 538.8 1354 538.8 1395 538.8 1435.9 538.8 1476.8 538.8 1517.7 538.8"/>
                <polyline class="st1" points="-109.3 542.2 -66.8 542.2 -24.2 542.2 18.3 542.2 60.8 542.2 103.4 542.2 145.9 542.2 188.4 542.2 230.9 542.2 273.5 542.2 316 542.2 358.5 542.2 401 542.2 443.6 542.2 486.1 542.2 528.6 542.2 571.2 542.2 613.7 542.2 656.2 542.2 698.7 542.2 741.3 542.2 783.8 542.2 826.3 542.2 868.8 542.2 911.4 542.2 953.9 542.2 996.4 542.2 1038.9 542.2 1081.5 542.2 1124 542.2 1166.5 542.2 1209.1 542.2 1251.6 542.2 1294.1 542.2 1336.6 542.2 1379.2 542.2 1421.7 542.2 1464.2 542.2 1506.8 542.2 1549.3 542.2"/>
                <polyline class="st1" points="-143.5 545.9 -99.2 545.9 -54.9 545.9 -10.7 545.9 33.6 545.9 77.9 545.9 122.2 545.9 166.5 545.9 210.8 545.9 255 545.9 299.3 545.9 343.6 545.9 387.9 545.9 432.2 545.9 476.4 545.9 520.7 545.9 565 545.9 609.3 545.9 653.6 545.9 697.9 545.9 742.1 545.9 786.4 545.9 830.7 545.9 875 545.9 919.3 545.9 963.6 545.9 1007.8 545.9 1052.1 545.9 1096.4 545.9 1140.7 545.9 1185 545.9 1229.3 545.9 1273.5 545.9 1317.8 545.9 1362.1 545.9 1406.4 545.9 1450.7 545.9 1494.9 545.9 1539.2 545.9 1583.5 545.9"/>
                <polyline class="st1" points="-180.7 549.9 -134.5 549.9 -88.3 549.9 -42.1 549.9 4.1 549.9 50.3 549.9 96.5 549.9 142.6 549.9 188.8 549.9 235 549.9 281.2 549.9 327.4 549.9 373.6 549.9 419.8 549.9 466 549.9 512.2 549.9 558.3 549.9 604.5 549.9 650.7 549.9 696.9 549.9 743.1 549.9 789.3 549.9 835.5 549.9 881.7 549.9 927.8 549.9 974 549.9 1020.2 549.9 1066.4 549.9 1112.6 549.9 1158.8 549.9 1205 549.9 1251.2 549.9 1297.4 549.9 1343.5 549.9 1389.7 549.9 1435.9 549.9 1482.1 549.9 1528.3 549.9 1574.5 549.9 1620.7 549.9"/>
                <polyline class="st1" points="-221.2 554.3 -172.9 554.3 -124.7 554.3 -76.4 554.3 -28.1 554.3 20.1 554.3 68.4 554.3 116.7 554.3 164.9 554.3 213.2 554.3 261.5 554.3 309.7 554.3 358 554.3 406.3 554.3 454.5 554.3 502.8 554.3 551.1 554.3 599.3 554.3 647.6 554.3 695.9 554.3 744.1 554.3 792.4 554.3 840.7 554.3 888.9 554.3 937.2 554.3 985.5 554.3 1033.7 554.3 1082 554.3 1130.3 554.3 1178.5 554.3 1226.8 554.3 1275.1 554.3 1323.3 554.3 1371.6 554.3 1419.8 554.3 1468.1 554.3 1516.4 554.3 1564.7 554.3 1612.9 554.3 1661.2 554.3"/>
                <polyline class="st1" points="-265.5 559.1 -215 559.1 -164.4 559.1 -113.9 559.1 -63.4 559.1 -12.8 559.1 37.7 559.1 88.3 559.1 138.8 559.1 189.3 559.1 239.9 559.1 290.4 559.1 341 559.1 391.5 559.1 442 559.1 492.6 559.1 543.1 559.1 593.7 559.1 644.2 559.1 694.7 559.1 745.3 559.1 795.8 559.1 846.3 559.1 896.9 559.1 947.4 559.1 998 559.1 1048.5 559.1 1099 559.1 1149.6 559.1 1200.1 559.1 1250.6 559.1 1301.2 559.1 1351.7 559.1 1402.3 559.1 1452.8 559.1 1503.4 559.1 1553.9 559.1 1604.4 559.1 1655 559.1 1705.5 559.1"/>
                <polyline class="st1" points="-314.2 564.4 -261.2 564.4 -208.1 564.4 -155.1 564.4 -102.1 564.4 -49 564.4 4 564.4 57 564.4 110.1 564.4 163.1 564.4 216.2 564.4 269.2 564.4 322.2 564.4 375.3 564.4 428.3 564.4 481.3 564.4 534.4 564.4 587.4 564.4 640.4 564.4 693.5 564.4 746.5 564.4 799.6 564.4 852.6 564.4 905.6 564.4 958.7 564.4 1011.7 564.4 1064.7 564.4 1117.8 564.4 1170.8 564.4 1223.8 564.4 1276.9 564.4 1329.9 564.4 1382.9 564.4 1436 564.4 1489 564.4 1542.1 564.4 1595.1 564.4 1648.1 564.4 1701.2 564.4 1754.2 564.4"/>
                <polyline class="st1" points="-368 570.2 -312.2 570.2 -256.4 570.2 -200.6 570.2 -144.8 570.2 -89 570.2 -33.2 570.2 22.6 570.2 78.4 570.2 134.2 570.2 190 570.2 245.8 570.2 301.5 570.2 357.3 570.2 413.1 570.2 468.9 570.2 524.7 570.2 580.5 570.2 636.3 570.2 692.1 570.2 747.9 570.2 803.7 570.2 859.5 570.2 915.3 570.2 971.1 570.2 1026.9 570.2 1082.7 570.2 1138.5 570.2 1194.2 570.2 1250 570.2 1305.8 570.2 1361.6 570.2 1417.4 570.2 1473.2 570.2 1529 570.2 1584.8 570.2 1640.6 570.2 1696.4 570.2 1752.2 570.2 1808 570.2"/>
                <polyline class="st1" points="-427.6 576.7 -368.8 576.7 -309.9 576.7 -251.1 576.7 -192.2 576.7 -133.4 576.7 -74.5 576.7 -15.7 576.7 43.2 576.7 102 576.7 160.9 576.7 219.7 576.7 278.6 576.7 337.4 576.7 396.3 576.7 455.2 576.7 514 576.7 572.9 576.7 631.7 576.7 690.6 576.7 749.4 576.7 808.3 576.7 867.1 576.7 926 576.7 984.8 576.7 1043.7 576.7 1102.5 576.7 1161.4 576.7 1220.3 576.7 1279.1 576.7 1338 576.7 1396.8 576.7 1455.7 576.7 1514.5 576.7 1573.4 576.7 1632.2 576.7 1691.1 576.7 1749.9 576.7 1808.8 576.7 1867.6 576.7"/>
                <polyline class="st1" points="-494.2 583.9 -432 583.9 -369.7 583.9 -307.4 583.9 -245.2 583.9 -182.9 583.9 -120.6 583.9 -58.4 583.9 3.9 583.9 66.2 583.9 128.4 583.9 190.7 583.9 253 583.9 315.3 583.9 377.5 583.9 439.8 583.9 502.1 583.9 564.3 583.9 626.6 583.9 688.9 583.9 751.1 583.9 813.4 583.9 875.7 583.9 937.9 583.9 1000.2 583.9 1062.5 583.9 1124.7 583.9 1187 583.9 1249.3 583.9 1311.6 583.9 1373.8 583.9 1436.1 583.9 1498.4 583.9 1560.6 583.9 1622.9 583.9 1685.2 583.9 1747.4 583.9 1809.7 583.9 1872 583.9 1934.2 583.9"/>
                <polyline class="st1" points="-569 592 -502.9 592 -436.8 592 -370.7 592 -304.6 592 -238.5 592 -172.4 592 -106.3 592 -40.2 592 25.9 592 92 592 158.1 592 224.2 592 290.3 592 356.4 592 422.5 592 488.6 592 554.7 592 620.8 592 686.9 592 753 592 819.2 592 885.3 592 951.4 592 1017.5 592 1083.6 592 1149.7 592 1215.8 592 1281.9 592 1348 592 1414.1 592 1480.2 592 1546.3 592 1612.4 592 1678.5 592 1744.6 592 1810.7 592 1876.8 592 1942.9 592 2009 592"/>
                <polyline class="st1" points="-653.7 601.1 -583.2 601.1 -512.8 601.1 -442.3 601.1 -371.9 601.1 -301.4 601.1 -231 601.1 -160.5 601.1 -90.1 601.1 -19.7 601.1 50.8 601.1 121.2 601.1 191.7 601.1 262.1 601.1 332.6 601.1 403 601.1 473.4 601.1 543.9 601.1 614.3 601.1 684.8 601.1 755.2 601.1 825.7 601.1 896.1 601.1 966.5 601.1 1037 601.1 1107.4 601.1 1177.9 601.1 1248.3 601.1 1318.8 601.1 1389.2 601.1 1459.7 601.1 1530.1 601.1 1600.5 601.1 1671 601.1 1741.4 601.1 1811.9 601.1 1882.3 601.1 1952.8 601.1 2023.2 601.1 2093.6 601.1"/>
                <polyline class="st1" points="-750.2 611.6 -674.8 611.6 -599.4 611.6 -524 611.6 -448.6 611.6 -373.2 611.6 -297.8 611.6 -222.4 611.6 -147 611.6 -71.6 611.6 3.8 611.6 79.2 611.6 154.6 611.6 229.9 611.6 305.3 611.6 380.7 611.6 456.1 611.6 531.5 611.6 606.9 611.6 682.3 611.6 757.7 611.6 833.1 611.6 908.5 611.6 983.9 611.6 1059.3 611.6 1134.7 611.6 1210 611.6 1285.4 611.6 1360.8 611.6 1436.2 611.6 1511.6 611.6 1587 611.6 1662.4 611.6 1737.8 611.6 1813.2 611.6 1888.6 611.6 1964 611.6 2039.4 611.6 2114.8 611.6 2190.2 611.6"/>
                <polyline class="st1" points="-861.2 623.6 -780.2 623.6 -699.1 623.6 -618 623.6 -536.9 623.6 -455.8 623.6 -374.7 623.6 -293.6 623.6 -212.5 623.6 -131.4 623.6 -50.4 623.6 30.7 623.6 111.8 623.6 192.9 623.6 274 623.6 355.1 623.6 436.2 623.6 517.3 623.6 598.4 623.6 679.5 623.6 760.5 623.6 841.6 623.6 922.7 623.6 1003.8 623.6 1084.9 623.6 1166 623.6 1247.1 623.6 1328.2 623.6 1409.3 623.6 1490.3 623.6 1571.4 623.6 1652.5 623.6 1733.6 623.6 1814.7 623.6 1895.8 623.6 1976.9 623.6 2058 623.6 2139.1 623.6 2220.2 623.6 2301.2 623.6"/>
                <polyline class="st1" points="-990.5 637.6 -902.8 637.6 -815.1 637.6 -727.3 637.6 -639.6 637.6 -551.9 637.6 -464.2 637.6 -376.5 637.6 -288.8 637.6 -201 637.6 -113.3 637.6 -25.6 637.6 62.1 637.6 149.8 637.6 237.5 637.6 325.3 637.6 413 637.6 500.7 637.6 588.4 637.6 676.1 637.6 763.9 637.6 851.6 637.6 939.3 637.6 1027 637.6 1114.7 637.6 1202.4 637.6 1290.2 637.6 1377.9 637.6 1465.6 637.6 1553.3 637.6 1641 637.6 1728.8 637.6 1816.5 637.6 1904.2 637.6 1991.9 637.6 2079.6 637.6 2167.3 637.6 2255.1 637.6 2342.8 637.6 2430.5 637.6"/>
                <polyline class="st1" points="-1142.8 654.1 -1047.2 654.1 -951.7 654.1 -856.2 654.1 -760.7 654.1 -665.1 654.1 -569.6 654.1 -474.1 654.1 -378.6 654.1 -283 654.1 -187.5 654.1 -92 654.1 3.6 654.1 99.1 654.1 194.6 654.1 290.1 654.1 385.7 654.1 481.2 654.1 576.7 654.1 672.2 654.1 767.8 654.1 863.3 654.1 958.8 654.1 1054.3 654.1 1149.9 654.1 1245.4 654.1 1340.9 654.1 1436.4 654.1 1532 654.1 1627.5 654.1 1723 654.1 1818.5 654.1 1914.1 654.1 2009.6 654.1 2105.1 654.1 2200.7 654.1 2296.2 654.1 2391.7 654.1 2487.2 654.1 2582.8 654.1"/>
                <polyline class="st1" points="-1324.8 673.8 -1219.9 673.8 -1115.1 673.8 -1010.2 673.8 -905.3 673.8 -800.5 673.8 -695.6 673.8 -590.8 673.8 -485.9 673.8 -381 673.8 -276.2 673.8 -171.3 673.8 -66.5 673.8 38.4 673.8 143.3 673.8 248.1 673.8 353 673.8 457.8 673.8 562.7 673.8 667.6 673.8 772.4 673.8 877.3 673.8 982.1 673.8 1087 673.8 1191.9 673.8 1296.7 673.8 1401.6 673.8 1506.4 673.8 1611.3 673.8 1716.2 673.8 1821 673.8 1925.9 673.8 2030.7 673.8 2135.6 673.8 2240.5 673.8 2345.3 673.8 2450.2 673.8 2555 673.8 2659.9 673.8 2764.8 673.8"/>
                <polyline class="st1" points="-1546.2 697.8 -1430 697.8 -1313.8 697.8 -1197.6 697.8 -1081.4 697.8 -965.1 697.8 -848.9 697.8 -732.7 697.8 -616.5 697.8 -500.3 697.8 -384.1 697.8 -267.8 697.8 -151.6 697.8 -35.4 697.8 80.8 697.8 197 697.8 313.2 697.8 429.5 697.8 545.7 697.8 661.9 697.8 778.1 697.8 894.3 697.8 1010.5 697.8 1126.8 697.8 1243 697.8 1359.2 697.8 1475.4 697.8 1591.6 697.8 1707.8 697.8 1824 697.8 1940.3 697.8 2056.5 697.8 2172.7 697.8 2288.9 697.8 2405.1 697.8 2521.4 697.8 2637.6 697.8 2753.8 697.8 2870 697.8 2986.2 697.8"/>
                <polyline class="st1" points="-1821.5 727.5 -1691.1 727.5 -1560.8 727.5 -1430.5 727.5 -1300.1 727.5 -1169.8 727.5 -1039.5 727.5 -909.1 727.5 -778.8 727.5 -648.5 727.5 -518.1 727.5 -387.8 727.5 -257.5 727.5 -127.2 727.5 3.2 727.5 133.5 727.5 263.8 727.5 394.2 727.5 524.5 727.5 654.8 727.5 785.2 727.5 915.5 727.5 1045.8 727.5 1176.2 727.5 1306.5 727.5 1436.8 727.5 1567.2 727.5 1697.5 727.5 1827.8 727.5 1958.1 727.5 2088.5 727.5 2218.8 727.5 2349.1 727.5 2479.5 727.5 2609.8 727.5 2740.1 727.5 2870.5 727.5 3000.8 727.5 3131.1 727.5 3261.4 727.5"/>
              </g>
            </g>
          </g>
          <rect class="st5" x="-12.6" y="265.6" width="1465.2" height="549.8"/>
        </g>
      </g>
    </g>
  </g>
</svg>