<?xml version="1.0" encoding="UTF-8"?>
<svg id="Layer_1" xmlns="http://www.w3.org/2000/svg" version="1.1" viewBox="0 0 305 114.7">
  <!-- Generator: Adobe Illustrator 29.1.0, SVG Export Plug-In . SVG Version: 2.1.0 Build 142)  -->
  <defs>
    <style>
      .st0 {
        fill: #1d8406;
      }
    </style>
  </defs>
  <path class="st0" d="M173.8.6c4.3.6,8.5,1.5,12.7,2.4,7.5,1.6,14,4,20.7,7.6,6.8,3.7,12.9,8.6,18.7,13.8,16.3,14.6,25.9,33,40.3,49.6,9.5,11,23.4,19.2,36.1,26.2.8,1,2.6,2.6,2.8,4,.4,3.4-11.7-.6-13.2-1.2-3.4-1.2-9.6-4.3-12.9-6-17.5-9.3-29.1-23.9-42.2-38.6-3.7-4.1-7.6-7.9-11.3-12-2.1-2.4-4.6-4.4-7.1-6.4-1.9-1.5-4.6-3.4-7-1.5-1.4,1.2-1.9,3-2,4.8-.3,4,1.1,8,3.2,11.4,1.9,3.2,4.5,6.2,7.3,8.7,2.6,2.3,5.4,4.3,7.8,6.9.6.6,1.7.6,2.1,1.8,1,3.3.3,8.1.7,11.5.7,5.9,5.8,16.3,2.7,21.7-3.3,5.7-11.8,4-17.2,3.7-.3-.3,3.9-6.6,4.5-7.4.7-.9,3-1.8,3.2-3s-1.6-10.4-2.2-12c-2.1-5.8-3.3-3.6-7.8-4.5-6-1.2-17.3-5.3-22.5-8.7-1.7-1.1-2.7-2.6-4.5-3.4-2-.9-3.6-2.1-5.2-3.6.4,1,.7,1.9,1.1,2.9.2.6.4,1.2.5,1.8,0,1.3-.6,3.2-1.3,4.3-1.3,2.2-15,14.6-17.3,16.1-3.4,2.1-11.1,2.9-14.7,1.5-.5-.2-.9-1-1.5-1.3-1-.6-3.6-.7-2.7-2.3.4-.7,5.7-4.4,6.8-4.9,3.2-1.4,6.7-1.2,9.6-3.2,4.1-2.8,7.6-7,5-12.1-.7-1.3-1.6-2.4-2.6-3.4-2.5-2.8-5.1-5.7-8-8-2.6-2-7-1.2-10.2-1.2-8.5-.1-17.1.1-25.5,1.8-3.5,1.4-6.2,2.1-9.6,2.7-.7.1-1.2.2-1.8.7-1,.8-7.6,10.8-8.1,12.3-2.7,7.5-3.2,12.5-7.5,19.9-1.4,2.4-3.9,4.6-5,6.7-1.3,2.6-1.3,6.6-2.2,8.4-.1.3-4.8,3.7-5.1,3.8-1,.3-2.3,0-3.5.4-2.9.8-4.6,1.7-8,1.4-.2-1.3-2.3-.6-2-2,0-.4,4.6-6.3,5.3-7,1.1-1.2,2.9-1.7,3.6-3.3-.5,1.1-7,.9-8.1.8-2.3-.1-.6-2.8-.2-4,.5-1.3,1-2.6,1.6-3.8,1-1.9,2.9-2.9,3.8-4.6,2.6-4.9,1.4-12.2.6-17.4-1-6.6-2.6-13.6-5.9-19.5-1-1.8-2.4-3.3-3.7-5-2.8-3.9-5.8-7.9-9.8-10.5-1.6-1-3.4-1.8-5.1-2.5-3.5-1.5-7-3-10.7-3.6-3.2-.5-6.5-.3-9.7-.9-2.5-.5-4.9-1.4-7.5-1.5-2.3-.1-4.3-.3-6.5-.9-3.3-.8-7.9-1.3-10.6-3.4C3.7,25.1,0,16.2,0,15.1c0-2.1,1.8-2.7,3.5-3.1,2.5-.6,5.1-.9,7.5-1.9s4.3-2.4,6.3-3.7c5.4-3.4,11.6-4.3,17.8-5.2,4.6-.7,9.2-.3,13.7.6,6.7,1.3,13.5,2.3,20.3,3,4.2.4,8.5.7,12.8.8,11.1.3,22.2.5,33.2-.4,7.1-.6,14.1-1.9,21.2-2.9s14.1-1.5,21.1-2c2.8-.2,5.5-.4,8.3-.3,2.7,0,5.3.3,8,.6h0Z"/>
</svg>