<?xml version="1.0" encoding="UTF-8"?>
<svg id="Layer_1" xmlns="http://www.w3.org/2000/svg" version="1.1" viewBox="0 0 305 93.9">
  <!-- Generator: Adobe Illustrator 29.1.0, SVG Export Plug-In . SVG Version: 2.1.0 Build 142)  -->
  <defs>
    <style>
      .st0 {
        fill: #1d8406;
      }
    </style>
  </defs>
  <path class="st0" d="M303.2,64.4c-10.8-17-26.1-26-44.7-32.5-31.6-11-64.6-9.4-96.9-16.1-8.3-1.7-17.1-4.8-25.5-5.6-19.8-1.9-40.8.3-60.7.5-2.1,0-3.9.3-6.1,0C58.3,9.3,49.6.9,38.4,0,25-.9,13.4,5.7,4.1,14.6c-1.4,1.4-7,7.3-2.2,7.9,2.1.3,7-2.1,9.3-2.8,5.5-1.6,11.2-2.7,16.5-5,4.7-2.1,5.4-3.4,11.2-3.1,6.9.4,20,8.3,25.9,12.4,1.6,1.1,4.3,2.8,5,4.6.6,1.3.7,2.5,1.5,3.9,3.1,5.7,10,8,13.5,13.6,1,1.7.2,5.8.3,8.1,0,1.6.6,3.2.7,4.7.2,2.5-.2,8.8,1.8,10.3.6.4,1.1,0,1.1,0,.5.5.1,5.6,3,4.9-.6-1.1-1.1-2-.7-3.2.6.3.7,1.5,1.2,1.8.2.1.8.3,1,0-.6-1.6-.3-3.3-.5-4.9,0-.6-.9-3.4-.7-3.6.1-.2.8.3.7-.4,0-.6-.9-1.6-1.1-2.4-.8-2.5-.4-6.6-.4-9.2,0-3.1.6-6.5-1.2-9.3,10.3,2,20.9,1.9,31.3,3.6.5.2,1,2.7,1.3,3.4,1.1,2.5,4.1,6.8,5.9,8.9,4.4,5.2,16.1,12.8,12.5,21.1-1.3,2.9-3.7,5.7-5,8.6-3.8,2.4-8.7,1.1-12.9,2.4-1.2.4-2.2,1.3-2.3,2.5.5.3,2.1-.8,2.2-.7,0,0-.1.6.1.8.5.4,9.7.3,11.1.2,2.2,0,5.8-.1,7.9-.5,1.7-.3,0-2.4.4-3.5.2-.6.6-.2.9-.2,1.1-.1,0-.8-.1-1.6-.8-4.6,4.2-7,4.7-10.4.5-4-2.1-5.6-3.6-8.9-2.6-5.4-2.5-9.8-3-15.5-.2-2.5-3.2-6.8-2.9-8.3.3-1.5,4.4-2,5.7-2.5,6.5-2.4,8.7-5.2,16.6-5.4,27.4-.7,54.9-5.6,82.3-1.2,11.5,1.9,25.6,6,36,11.4,9.4,4.9,16.4,11.2,23.7,18.7.2.2,1.8,2.5,2.2,2.1.4-.4-1.4-3.2-1.8-3.8h0Z"/>
</svg>