<?xml version="1.0" encoding="UTF-8"?>
<svg id="svg3278" xmlns="http://www.w3.org/2000/svg" xmlns:svg="http://www.w3.org/2000/svg" xmlns:sodipodi="http://sodipodi.sourceforge.net/DTD/sodipodi-0.dtd" xmlns:rdf="http://www.w3.org/1999/02/22-rdf-syntax-ns#" xmlns:inkscape="http://www.inkscape.org/namespaces/inkscape" xmlns:dc="http://purl.org/dc/elements/1.1/" xmlns:cc="http://creativecommons.org/ns#" version="1.1" viewBox="0 0 305 71">
  <!-- Generator: Adobe Illustrator 29.1.0, SVG Export Plug-In . SVG Version: 2.1.0 Build 142)  -->
  <defs>
    <style>
      .st0 {
        fill: #1d8406;
      }
    </style>
  </defs>
  <g id="_x3C_defs">
    <inkscape:perspective id="perspective3285" inkscape:persp3d-origin="372.04724 : 350.78739 : 1" inkscape:vp_x="0 : 526.18109 : 1" inkscape:vp_y="0 : 1000 : 0" inkscape:vp_z="744.09448 : 526.18109 : 1" sodipodi:type="inkscape:persp3d"/>
  </g>
  <sodipodi:namedview id="base" bordercolor="#666666" borderopacity="1.0" gridtolerance="10.0" guidetolerance="10.0" inkscape:bbox-nodes="true" inkscape:bbox-paths="true" inkscape:current-layer="g4894" inkscape:cx="549.8541" inkscape:cy="148.12153" inkscape:pageopacity="0.0" inkscape:pageshadow="2" inkscape:snap-bbox="true" inkscape:snap-bbox-edge-midpoints="true" inkscape:snap-bbox-midpoints="true" inkscape:snap-global="false" inkscape:window-height="544" inkscape:window-maximized="1" inkscape:window-width="800" inkscape:window-x="-4" inkscape:window-y="-4" inkscape:zoom="0.12923077" objecttolerance="10.0" pagecolor="#ffffff" showgrid="true"/>
  <path id="path3740" class="st0" d="M98.1,67.9c.7.2,1.1.3,1.9,0,.4,0,.8,0,1-.2,0,0,.5-.2.9-.2s.9-.2,1.2-.3c.4,0,.8-.2.9,0,.7.2,3.8,0,4.2-.3,0,0,.3,0,.6.3.5.4.8.5,1.4.2,1.4-.6,1.6-.7,2-.8.2,0,.7-.2,1-.3s.9-.3,1.2-.3.6,0,.7,0c0,0,.4,0,.7-.2.6,0,2.5-1.1,2.8-1.5.2-.3.5-1.6.4-1.8,0,0,0-.5-.2-1.1,0-.5-.3-1.5-.4-2.1-.4-1.3-.7-2.7-1-4.2-.6-2.8-1.8-6.8-2.3-9.2-.3-1.3-1.1-3.7-1.9-4.6-.8-.9-.8-1.1-.5-1.8.2-.6.3-.6.6-.6s.5,0,.7,0c1.3-.5,2.7-.3,3.9-.8.2,0,.7-.2,1.1-.2.7,0,2-.5,4.8-1.4.9-.3,2-.5,3-.8.8-.2,4.7-1.4,5.4-1.8.3-.2,1-.4,1.4-.6,4-1.4,7.5-3.4,11.8-4.2,1.6-.3,3.3-.8,4.9-1.1,1.1-.2,3.1-.6,4.2-.6,2.9-.2,6-.6,9-.6s5.5,0,9.3,0c4.1.2,8.3.4,12.7.5,8,.2,11.3.3,31.4,1.6,3.7.3,7.6.6,11.6.9.8,0,3.2,0,5.5,0,8.1-.2,17.1-2,25.8-1.7,7,.2,8.4-.4,14.8.6,3.7.6,6.5,1.6,9.8,2.7,1.7.6,3.8,1.5,6.1,2.3,1,.3,3.3,1.4,5.1,2.7,1.6,1.1,3.5,2.2,4.9,3.8.8.8,2.5,2.3,4.2,3.8.3,0,.4,0,.4-.7s-.6-1.6-2.8-3.8c-2.4-2.6-5.1-4.3-8.1-6.2-.7-.5-1.9-1-3.1-1.4-2.1-.7-4-1.5-6-2.2-.8-.3-3.7-1.3-4.5-1.5-1.7-.3-3.4-.8-5.1-1.2-1.6-.4-4-.6-7.9-.8-3.7,0-20.6-.2-21.4,0-.6,0-1.8.2-3.2.3-2,0-4.5.4-6.6.5-3.8,0-5.3.2-6.7,0-3.4-.5-6.8-.8-10.2-1-4.3-.2-9-1.1-13.8-1.6-3.6-.4-6.6-1.5-10.8-2.9-4.1-1.3-9-3.6-13.5-5.3-3.5-1.3-7.8-2.5-11.8-3.3-3.7-.8-7-2.1-10.7-3-3.1-.8-6.1-.6-9.5-.2-1.9.2-3.8.4-5.7.8-.4,0-1.2.3-1.7.3-1.2.2-5,.2-6.3,0-4.4-.4-9.1-1.5-14.2-1.4-6.5.2-10.7.7-18.3.6h-13c-1.5,0-3.3.2-5.3.5-1.9.3-4.2.7-6.4,1.2-2.3.6-4.2,1-6.7,1.6-1.9.5-4.6,1.4-6.4,1.8-1.5.3-1.6.5-3.7.3-2.5-.2-4.3-.2-5.6-.3-1.7-.2-3.8-.6-5.6-1.1-1.6-.4-3.3-2.1-4.8-2.8-1.1-.5-2.3-1.5-3.4-2.2-1.2-.8-3.7-1.9-5.7-2.5-2.3-.8-4.3-1.2-7-1.2s-7.1.3-7.9.7c-1.4.6-1.6.7-2.5.7h-3.1c-2,0-2.2,0-2.9.4-.4.2-.8.4-.9.5-.4.4-1.8,1.1-2.1,1.1h-.3c0,0-1,.4-1.6.5-.2,0-.6.2-.8.4-.5.4-2.1,1.4-2.3,1.4s-.3.2-.6.4c-.3.2-.6.4-.7.5s-.5.3-.8.4c-.3.2-.7.4-.9.5-.2,0-.5.3-.7.5s-.6.5-.9.8c-.4.3-.7,1-.7,1.9s.3,2.3.5,2.5c0,0,.4.7.7,1.3.6,1.3.9,1.6,1.7,2l.6.3h1.6c.9-.2,1.9-.3,2.3-.4s.9-.2,1.1-.3c.3,0,1.4,0,2.5-.2,1.1,0,2.4,0,2.9-.2,1.3-.2,3.9.2,4.8.6.2,0,.7.2,1.1.3.4,0,1.2.2,1.6.4.6.2,1.1.3,1.9.3s1.3,0,1.5,0c.2,0,.7,0,1,0,.7,0,2.7.8,4.3,1.7,1.4.8,2.5,1.2,3.8,1.5.8.2,1.8.5,2.2.6,1,.4,1.6.5,2.8.6.5,0,1.1,0,1.3.2.2,0,.7.2,1.3.2s1.1,0,1.6.2c.6.2,2.6,1.1,4,1.9.4.2,1,.5,1.5.7s1.1.5,1.4.7c.8.6,3.5,1.9,4.4,2.2,1.7.6,2.1.8,2.8,1.2s1.6.8,2.4,1.1c.2,0,.7.4,1.1.7.4.3,1.2.9,1.8,1.3s1.4.9,1.7,1.1.7.6.9.7c.6.4,1.1,1.1,1.1,1.4s0,.5-.2.7c-.4,1.1-.5,11,0,12.4.4,1.2,1.1,2,1.1,1.1v-.6c0-.2,0,0,.5.4.6.9,1.1,1.5,1.5,1.5s.4,0,0-.7c0-.3-.2-.5-.2-.6,0,0,.2,0,.4.2.6.5.8.5,1,.4,0,0,0-.2,0-.6,0-.3-.4-.7-.6-1-.4-.6-.3-.7.3-.3.4.3,1.4.3,1.4,0s-.2-.4-.6-.8q-.5-.6-.3-.6c.8,0,.8-.4,0-.9-1.2-.8-1.5-1.1-1.7-1.7-.2-.5-.2-.7,0-1.8.3-1.4.4-1.8.7-2.9,0-.5.4-1.3.5-1.8s.4-1.2.5-1.6c0-.4.2-1,.3-1.8,0-1.1,0-1.2.3-1.3h.3c0,0,2.3.4,2.8.4s.8,0,1.1,0c1,.2,5,.3,6.7,0,2.2-.4,5.5-.5,7.9-.3,2.6.2,4.2.5,5.9,1.8.9.7,2.1,1.2,3.1,1.8.4.3,1.6.8,2,.8s.2,0,.4.2c.3.3,1.5,2.5,2.1,3.8,1.8,4.1,3.3,5.9,6.5,13.3.2.4,0,.5-.9,1.1-1.5.9-3.6,1.4-6.6,1.5h-4.3c-.5,0-1.4.2-2.1.2-1.1,0-1.4,0-2.2.5-1,.5-2,1.3-2,1.6s0,.4,0,.5c0,.2.6,0,1.4,0s.8.2,1.9,0c.2,0,.3,0,.3,0s0,.3-.3.6c-.4.6-.4,1-.2,1.1h.7c.9-.2,1.7-.2,2.5,0h0l.2.6Z" inkscape:connector-curvature="0" sodipodi:nodetypes="cscccssssssscssssscsscssssccssssssssssssscssssscssssssssssssssscssssscccsssssssscsssssssssssssssssssssssssssssssssssssssssssssssssssssscscssssssssssssssssssssccssssccssssccsssscssssssc"/>
</svg>