<svg width="289" height="177" viewBox="0 0 289 177" fill="none" xmlns="http://www.w3.org/2000/svg">
<path d="M0.438324 7.53814C0.609222 7.41695 0.922852 7.26238 1.03033 6.8338C1.12723 6.44738 1.58179 6.11893 1.74036 5.70265C1.96588 5.11423 2.03458 4.45556 2.061 3.8408C2.09094 3.12241 2.25659 2.32849 2.6301 1.75764C3.23795 0.824962 3.29782 0.542172 5.50015 0.563249C6.0798 0.568519 7.23737 0.610674 7.90335 0.517581C8.06192 0.494748 8.21167 0.466644 8.35791 0.435028C8.36673 0.431515 8.37375 0.428002 8.38257 0.426246C10.7346 -0.334301 14.017 0.0398249 16.7356 0.638777C21.0028 1.57848 24.9881 3.64759 28.7656 5.83965C35.0924 9.51065 40.7744 14.2338 46.3155 19.0025C57.3747 28.5173 67.2305 39.3423 77.5022 49.6984C82.8142 55.0538 87.7597 60.7746 93.2444 65.9544C99.4867 71.8509 105.942 77.547 112.746 82.7901C118.636 87.3288 124.775 91.5688 131.146 95.4032C138.919 100.082 145.2 103.532 155.26 108.036C163.585 111.763 176.138 118.504 185.025 122.547C188.697 124.218 195.047 126.68 200.006 128.867C203.243 130.293 206.432 131.83 209.649 133.302C212.905 134.792 216.057 136.539 219.425 137.751C225.185 139.822 231.137 141.414 237.155 142.534C244.178 143.841 251.437 144.119 258.47 144.77C263.086 145.197 267.732 145.589 272.257 146.597C275.846 147.396 279.366 148.541 282.771 149.924C284.919 150.797 289.297 152.565 288.987 153.043C288.635 153.586 284.514 151.887 282.262 151.378C278.487 150.524 274.732 149.486 270.884 149.051C265.239 148.411 259.525 148.763 253.843 148.641C247.643 148.508 241.429 148.713 235.243 148.287C228.992 147.856 222.732 147.238 216.58 146.065C209.987 144.807 203.297 143.186 196.565 142.33C186.944 141.106 186.461 141.846 185.466 142.557C184.837 143.005 183.145 143.539 181.02 144.229C180.973 145.369 180.929 146.476 180.892 147.51C180.811 149.843 180.564 154.278 180.691 154.51C181.523 156.038 181.919 156.884 182.271 158.163C182.869 160.332 182.881 162.431 183.142 164.854C183.297 166.29 183.794 167.724 184.068 169.088C184.415 170.82 184.719 171.823 185.078 173.104C185.395 174.237 185.781 175.83 185.15 176.634C184.791 176.861 184.889 176.922 183.152 176.915C181.508 176.906 178.575 176.913 177.571 176.915V176.917C177.571 176.917 177.565 176.917 177.564 176.915C177.511 176.915 177.461 176.915 177.419 176.915C176.663 176.915 176.788 176.783 176.112 176.729C175.786 176.768 175.337 177.08 175.197 176.987C175.127 176.94 175.106 176.862 175.109 176.773C174.857 176.866 174.597 176.998 174.493 176.933C174.435 176.896 174.408 176.836 174.403 176.766C174.033 176.824 173.777 176.905 173.584 176.912C173.066 176.931 173.48 175.612 174.295 174.841C174.787 174.375 175.566 174.247 176.26 174.193C176.602 174.166 176.642 174.186 176.725 174.082C176.864 173.908 177.472 174.316 178.367 173.446C178.957 172.874 179.005 172.131 179.058 171.417C179.13 170.451 178.846 169.478 178.541 168.56C178.055 167.097 177.111 165.827 176.48 164.42C175.804 162.909 175.226 161.356 174.639 159.811C174.153 158.532 173.702 157.241 173.247 155.952C172.743 154.522 172.303 153.25 171.767 151.652C171.631 151.246 171.388 150.449 171.075 149.37C169.697 151.086 168.346 152.655 168.427 153.068C168.536 153.616 168.901 155.147 168.945 156.206C169.027 158.168 168.719 159.988 168.476 162.078C168.272 163.844 168.115 165.707 168.057 167.529C168.028 168.423 168.069 169.318 168.095 170.212C168.136 171.618 168.543 173.084 167.237 174.096C166.087 174.987 164.653 174.82 163.293 174.835C162.147 174.848 160.99 174.677 160.264 174.59C160.216 174.584 160.165 174.57 160.109 174.551C159.919 174.577 159.737 174.628 159.563 174.704C159.261 174.835 158.935 175.322 158.765 175.282C158.583 175.239 158.562 174.974 158.578 174.746C158.372 174.953 158.173 175.255 158.035 175.243C157.833 175.225 157.785 174.907 157.776 174.674C157.512 174.995 157.292 175.287 157.17 175.095C156.694 174.351 157.403 172.882 157.88 172.543C158.863 171.846 159.497 171.89 159.626 171.7C159.771 171.486 160.22 171.593 160.674 171.358C161.649 170.852 162.715 169.94 162.829 168.693C162.949 166.923 162.709 165.259 162.35 163.512C162.019 161.899 161.682 160.283 161.458 158.653C161.284 157.383 161.187 156.103 161.111 154.824C161.023 153.329 160.829 151.65 160.851 150.203C157.815 150.133 154.633 149.737 151.756 149.219C145.166 148.032 138.878 145.45 132.754 142.706C133.855 145.543 135.016 148.77 135.619 150.642C135.908 151.54 135.432 152.435 135.385 153.37C135.327 154.526 135.378 156.024 135.406 157.35C135.446 159.326 135.469 160.861 135.619 163.276C135.688 164.365 135.541 164.838 136.007 165.393C136.472 165.948 137.014 166.573 137.592 167.088C138.387 167.792 139.391 168.56 140.161 168.972C140.905 169.369 141.197 170.23 140.892 170.66C140.038 171.862 139.419 172.903 137.021 174.235C135.952 174.828 135.277 171.725 134.289 170.562C133.686 169.854 133.344 169.243 132.347 168.561C131.567 168.029 131.575 167.42 130.975 166.763C129.791 165.468 130.062 164.897 129.523 163.231C129.123 161.999 128.411 157.582 128.094 154.722C127.95 153.424 128.142 151.234 127.879 150.812C127.055 149.485 125.839 147.84 124.673 146.347C124.523 148.174 124.334 150.055 124.132 152.135C123.982 153.682 123.957 154.004 123.698 155.023C123.42 156.12 122.8 156.668 122.467 157.541C121.751 159.414 121.313 161.381 120.833 163.325C120.46 164.839 120.123 165.637 119.868 167.904C119.826 168.28 119.517 169.981 119.535 171.027C119.554 172.124 119.877 173.869 119.998 174.284C120.277 175.231 120.745 176.931 119.783 176.98C118.677 177.036 115.451 176.862 114.706 176.941C113.677 177.05 113.999 175.867 114.087 175.197C114.17 174.572 114.878 172.979 114.97 171.818C115.063 170.634 114.656 169.763 114.619 168.27C114.598 167.443 114.847 164.885 114.892 164.46C115.231 161.388 115.195 159.611 115.528 157.206C115.729 155.759 115.935 154.459 116.346 152.899C116.756 151.339 116.198 147.509 116.045 144.818C115.914 142.522 116.087 138.812 115.521 137.938C114.29 136.035 112.87 133.392 112.114 130.898C111.829 129.951 111.52 128.909 111.386 127.906C111.185 127.146 111.111 126.526 111.104 126.231C110.949 119.502 110.634 117.823 108.937 114.069C106.284 108.204 101.007 103.913 96.8897 98.9583C91.6852 92.6947 86.0049 86.8299 80.8955 80.4891C75.9976 74.41 71.6757 67.89 66.8623 61.7442C57.4504 49.73 48.6658 37.0958 37.8427 26.3287C31.9721 20.4885 26.1386 13.9949 18.5432 10.6787C16.2458 9.67575 13.5995 9.51592 11.0923 9.61428C8.77194 9.70561 6.24896 10.3098 4.25629 11.1002C3.51279 11.5745 3.1463 12.0997 2.79218 12.1014C2.30063 12.1032 1.19769 11.4059 0.93869 11.2127C0.577515 10.9439 0.577545 10.821 0.464783 10.8824C0.406647 10.9141 0.327332 10.8473 0.242767 10.6629C0.154663 10.4697 0.0630493 10.1395 0.026062 9.52294C-0.0461731 8.32152 0.0137024 7.84201 0.431274 7.54341L0.438324 7.53814Z" fill="#1D8406"/>
</svg>
